<svg xmlns="http://www.w3.org/2000/svg" version="1.1" xmlns:xlink="http://www.w3.org/1999/xlink" xmlns:svgjs="http://svgjs.dev/svgjs" width="1440" height="560" preserveAspectRatio="none" viewBox="0 0 1440 560"><g mask="url(&quot;#SvgjsMask1887&quot;)" fill="none"><rect width="1440" height="560" x="0" y="0" fill="#0e2a47"></rect><path d="M13.96 56.12L34.75 68.12L34.75 92.12L13.96 104.12L-6.83 92.12L-6.83 68.12zM13.96 128.12L34.75 140.12L34.75 164.12L13.96 176.12L-6.83 164.12L-6.83 140.12zM13.96 200.12L34.75 212.12L34.75 236.12L13.96 248.12L-6.83 236.12L-6.83 212.12zM13.96 272.12L34.75 284.12L34.75 308.12L13.96 320.12L-6.83 308.12L-6.83 284.12zM34.75 380.12L55.53 392.12L55.53 416.12L34.75 428.12L13.96 416.12L13.96 392.12zM55.53 128.12L76.32 140.12L76.32 164.12L55.53 176.12L34.75 164.12L34.75 140.12zM76.32 164.12L97.1 176.12L97.1 200.12L76.32 212.12L55.53 200.12L55.53 176.12zM55.53 416.12L76.32 428.12L76.32 452.12L55.53 464.12L34.75 452.12L34.75 428.12zM55.53 488.12L76.32 500.12L76.32 524.12L55.53 536.12L34.75 524.12L34.75 500.12zM97.1 128.12L117.89 140.12L117.89 164.12L97.1 176.12L76.32 164.12L76.32 140.12zM117.89 164.12L138.67 176.12L138.67 200.12L117.89 212.12L97.1 200.12L97.1 176.12zM117.89 236.12L138.67 248.12L138.67 272.12L117.89 284.12L97.1 272.12L97.1 248.12zM97.1 344.12L117.89 356.12L117.89 380.12L97.1 392.12L76.32 380.12L76.32 356.12zM97.1 560.12L117.89 572.12L117.89 596.12L97.1 608.12L76.32 596.12L76.32 572.12zM138.67 272.12L159.46 284.12L159.46 308.12L138.67 320.12L117.89 308.12L117.89 284.12zM138.67 344.12L159.46 356.12L159.46 380.12L138.67 392.12L117.89 380.12L117.89 356.12zM138.67 488.12L159.46 500.12L159.46 524.12L138.67 536.12L117.89 524.12L117.89 500.12zM138.67 560.12L159.46 572.12L159.46 596.12L138.67 608.12L117.89 596.12L117.89 572.12zM201.03 308.12L221.81 320.12L221.81 344.12L201.03 356.12L180.24 344.12L180.24 320.12zM180.24 488.12L201.03 500.12L201.03 524.12L180.24 536.12L159.46 524.12L159.46 500.12zM201.03 524.12L221.81 536.12L221.81 560.12L201.03 572.12L180.24 560.12L180.24 536.12zM221.81 56.12L242.6 68.12L242.6 92.12L221.81 104.12L201.03 92.12L201.03 68.12zM221.81 128.12L242.6 140.12L242.6 164.12L221.81 176.12L201.03 164.12L201.03 140.12zM221.81 344.12L242.6 356.12L242.6 380.12L221.81 392.12L201.03 380.12L201.03 356.12zM242.6 380.12L263.38 392.12L263.38 416.12L242.6 428.12L221.81 416.12L221.81 392.12zM221.81 488.12L242.6 500.12L242.6 524.12L221.81 536.12L201.03 524.12L201.03 500.12zM263.38 344.12L284.17 356.12L284.17 380.12L263.38 392.12L242.6 380.12L242.6 356.12zM284.17 380.12L304.95 392.12L304.95 416.12L284.17 428.12L263.38 416.12L263.38 392.12zM284.17 524.12L304.95 536.12L304.95 560.12L284.17 572.12L263.38 560.12L263.38 536.12zM263.38 560.12L284.17 572.12L284.17 596.12L263.38 608.12L242.6 596.12L242.6 572.12zM346.52 56.12L367.31 68.12L367.31 92.12L346.52 104.12L325.74 92.12L325.74 68.12zM346.52 272.12L367.31 284.12L367.31 308.12L346.52 320.12L325.74 308.12L325.74 284.12zM408.88 92.12L429.66 104.12L429.66 128.12L408.88 140.12L388.09 128.12L388.09 104.12zM408.88 236.12L429.66 248.12L429.66 272.12L408.88 284.12L388.09 272.12L388.09 248.12zM388.09 344.12L408.88 356.12L408.88 380.12L388.09 392.12L367.31 380.12L367.31 356.12zM408.88 524.12L429.66 536.12L429.66 560.12L408.88 572.12L388.09 560.12L388.09 536.12zM471.23 -15.88L492.02 -3.88L492.02 20.12L471.23 32.12L450.45 20.12L450.45 -3.88zM471.23 488.12L492.02 500.12L492.02 524.12L471.23 536.12L450.45 524.12L450.45 500.12zM533.59 20.12L554.38 32.12L554.38 56.12L533.59 68.12L512.8 56.12L512.8 32.12zM533.59 164.12L554.38 176.12L554.38 200.12L533.59 212.12L512.8 200.12L512.8 176.12zM512.8 560.12L533.59 572.12L533.59 596.12L512.8 608.12L492.02 596.12L492.02 572.12zM554.38 56.12L575.16 68.12L575.16 92.12L554.38 104.12L533.59 92.12L533.59 68.12zM575.16 380.12L595.95 392.12L595.95 416.12L575.16 428.12L554.38 416.12L554.38 392.12zM595.95 272.12L616.73 284.12L616.73 308.12L595.95 320.12L575.16 308.12L575.16 284.12zM595.95 344.12L616.73 356.12L616.73 380.12L595.95 392.12L575.16 380.12L575.16 356.12zM595.95 488.12L616.73 500.12L616.73 524.12L595.95 536.12L575.16 524.12L575.16 500.12zM637.52 272.12L658.3 284.12L658.3 308.12L637.52 320.12L616.73 308.12L616.73 284.12zM658.3 380.12L679.09 392.12L679.09 416.12L658.3 428.12L637.52 416.12L637.52 392.12zM679.09 -15.88L699.87 -3.88L699.87 20.12L679.09 32.12L658.3 20.12L658.3 -3.88zM720.66 344.12L741.44 356.12L741.44 380.12L720.66 392.12L699.87 380.12L699.87 356.12zM741.44 452.12L762.23 464.12L762.23 488.12L741.44 500.12L720.66 488.12L720.66 464.12zM720.66 488.12L741.44 500.12L741.44 524.12L720.66 536.12L699.87 524.12L699.87 500.12zM762.23 -15.88L783.01 -3.88L783.01 20.12L762.23 32.12L741.44 20.12L741.44 -3.88zM762.23 200.12L783.01 212.12L783.01 236.12L762.23 248.12L741.44 236.12L741.44 212.12zM762.23 272.12L783.01 284.12L783.01 308.12L762.23 320.12L741.44 308.12L741.44 284.12zM762.23 560.12L783.01 572.12L783.01 596.12L762.23 608.12L741.44 596.12L741.44 572.12zM824.58 92.12L845.37 104.12L845.37 128.12L824.58 140.12L803.8 128.12L803.8 104.12zM845.37 56.12L866.15 68.12L866.15 92.12L845.37 104.12L824.58 92.12L824.58 68.12zM845.37 344.12L866.15 356.12L866.15 380.12L845.37 392.12L824.58 380.12L824.58 356.12zM866.15 524.12L886.94 536.12L886.94 560.12L866.15 572.12L845.37 560.12L845.37 536.12zM886.94 272.12L907.72 284.12L907.72 308.12L886.94 320.12L866.15 308.12L866.15 284.12zM907.72 524.12L928.51 536.12L928.51 560.12L907.72 572.12L886.94 560.12L886.94 536.12zM949.29 20.12L970.08 32.12L970.08 56.12L949.29 68.12L928.51 56.12L928.51 32.12zM949.29 524.12L970.08 536.12L970.08 560.12L949.29 572.12L928.51 560.12L928.51 536.12zM928.51 560.12L949.29 572.12L949.29 596.12L928.51 608.12L907.72 596.12L907.72 572.12zM970.08 56.12L990.86 68.12L990.86 92.12L970.08 104.12L949.29 92.12L949.29 68.12zM1011.65 56.12L1032.43 68.12L1032.43 92.12L1011.65 104.12L990.86 92.12L990.86 68.12zM1011.65 200.12L1032.43 212.12L1032.43 236.12L1011.65 248.12L990.86 236.12L990.86 212.12zM1011.65 272.12L1032.43 284.12L1032.43 308.12L1011.65 320.12L990.86 308.12L990.86 284.12zM1053.22 56.12L1074.01 68.12L1074.01 92.12L1053.22 104.12L1032.43 92.12L1032.43 68.12zM1094.79 200.12L1115.58 212.12L1115.58 236.12L1094.79 248.12L1074.01 236.12L1074.01 212.12zM1115.58 236.12L1136.36 248.12L1136.36 272.12L1115.58 284.12L1094.79 272.12L1094.79 248.12zM1157.15 308.12L1177.93 320.12L1177.93 344.12L1157.15 356.12L1136.36 344.12L1136.36 320.12zM1136.36 416.12L1157.15 428.12L1157.15 452.12L1136.36 464.12L1115.58 452.12L1115.58 428.12zM1136.36 560.12L1157.15 572.12L1157.15 596.12L1136.36 608.12L1115.58 596.12L1115.58 572.12zM1177.93 -15.88L1198.72 -3.88L1198.72 20.12L1177.93 32.12L1157.15 20.12L1157.15 -3.88zM1177.93 128.12L1198.72 140.12L1198.72 164.12L1177.93 176.12L1157.15 164.12L1157.15 140.12zM1177.93 200.12L1198.72 212.12L1198.72 236.12L1177.93 248.12L1157.15 236.12L1157.15 212.12zM1177.93 272.12L1198.72 284.12L1198.72 308.12L1177.93 320.12L1157.15 308.12L1157.15 284.12zM1198.72 380.12L1219.5 392.12L1219.5 416.12L1198.72 428.12L1177.93 416.12L1177.93 392.12zM1177.93 416.12L1198.72 428.12L1198.72 452.12L1177.93 464.12L1157.15 452.12L1157.15 428.12zM1177.93 560.12L1198.72 572.12L1198.72 596.12L1177.93 608.12L1157.15 596.12L1157.15 572.12zM1219.5 56.12L1240.29 68.12L1240.29 92.12L1219.5 104.12L1198.72 92.12L1198.72 68.12zM1219.5 128.12L1240.29 140.12L1240.29 164.12L1219.5 176.12L1198.72 164.12L1198.72 140.12zM1240.29 164.12L1261.07 176.12L1261.07 200.12L1240.29 212.12L1219.5 200.12L1219.5 176.12zM1281.86 452.12L1302.64 464.12L1302.64 488.12L1281.86 500.12L1261.07 488.12L1261.07 464.12zM1302.64 128.12L1323.43 140.12L1323.43 164.12L1302.64 176.12L1281.86 164.12L1281.86 140.12zM1323.43 164.12L1344.21 176.12L1344.21 200.12L1323.43 212.12L1302.64 200.12L1302.64 176.12zM1323.43 380.12L1344.21 392.12L1344.21 416.12L1323.43 428.12L1302.64 416.12L1302.64 392.12zM1365 20.12L1385.78 32.12L1385.78 56.12L1365 68.12L1344.21 56.12L1344.21 32.12zM1344.21 56.12L1365 68.12L1365 92.12L1344.21 104.12L1323.43 92.12L1323.43 68.12zM1344.21 200.12L1365 212.12L1365 236.12L1344.21 248.12L1323.43 236.12L1323.43 212.12zM1365 308.12L1385.78 320.12L1385.78 344.12L1365 356.12L1344.21 344.12L1344.21 320.12zM1365 452.12L1385.78 464.12L1385.78 488.12L1365 500.12L1344.21 488.12L1344.21 464.12zM1365 524.12L1385.78 536.12L1385.78 560.12L1365 572.12L1344.21 560.12L1344.21 536.12zM1385.78 -15.88L1406.57 -3.88L1406.57 20.12L1385.78 32.12L1365 20.12L1365 -3.88zM1406.57 308.12L1427.35 320.12L1427.35 344.12L1406.57 356.12L1385.78 344.12L1385.78 320.12zM1385.78 344.12L1406.57 356.12L1406.57 380.12L1385.78 392.12L1365 380.12L1365 356.12zM1385.78 560.12L1406.57 572.12L1406.57 596.12L1385.78 608.12L1365 596.12L1365 572.12zM1448.14 20.12L1468.92 32.12L1468.92 56.12L1448.14 68.12L1427.35 56.12L1427.35 32.12zM1427.35 344.12L1448.14 356.12L1448.14 380.12L1427.35 392.12L1406.57 380.12L1406.57 356.12zM1448.14 452.12L1468.92 464.12L1468.92 488.12L1448.14 500.12L1427.35 488.12L1427.35 464.12z" stroke="url(&quot;#SvgjsLinearGradient1888&quot;)" stroke-width="2"></path><path d="M10.96 56.12 a3 3 0 1 0 6 0 a3 3 0 1 0 -6 0zM31.75 68.12 a3 3 0 1 0 6 0 a3 3 0 1 0 -6 0zM31.75 92.12 a3 3 0 1 0 6 0 a3 3 0 1 0 -6 0zM10.96 104.12 a3 3 0 1 0 6 0 a3 3 0 1 0 -6 0zM-9.83 92.12 a3 3 0 1 0 6 0 a3 3 0 1 0 -6 0zM-9.83 68.12 a3 3 0 1 0 6 0 a3 3 0 1 0 -6 0zM10.96 128.12 a3 3 0 1 0 6 0 a3 3 0 1 0 -6 0zM31.75 140.12 a3 3 0 1 0 6 0 a3 3 0 1 0 -6 0zM31.75 164.12 a3 3 0 1 0 6 0 a3 3 0 1 0 -6 0zM10.96 176.12 a3 3 0 1 0 6 0 a3 3 0 1 0 -6 0zM-9.83 164.12 a3 3 0 1 0 6 0 a3 3 0 1 0 -6 0zM-9.83 140.12 a3 3 0 1 0 6 0 a3 3 0 1 0 -6 0zM10.96 200.12 a3 3 0 1 0 6 0 a3 3 0 1 0 -6 0zM31.75 212.12 a3 3 0 1 0 6 0 a3 3 0 1 0 -6 0zM31.75 236.12 a3 3 0 1 0 6 0 a3 3 0 1 0 -6 0zM10.96 248.12 a3 3 0 1 0 6 0 a3 3 0 1 0 -6 0zM-9.83 236.12 a3 3 0 1 0 6 0 a3 3 0 1 0 -6 0zM-9.83 212.12 a3 3 0 1 0 6 0 a3 3 0 1 0 -6 0zM10.96 272.12 a3 3 0 1 0 6 0 a3 3 0 1 0 -6 0zM31.75 284.12 a3 3 0 1 0 6 0 a3 3 0 1 0 -6 0zM31.75 308.12 a3 3 0 1 0 6 0 a3 3 0 1 0 -6 0zM10.96 320.12 a3 3 0 1 0 6 0 a3 3 0 1 0 -6 0zM-9.83 308.12 a3 3 0 1 0 6 0 a3 3 0 1 0 -6 0zM-9.83 284.12 a3 3 0 1 0 6 0 a3 3 0 1 0 -6 0zM31.75 380.12 a3 3 0 1 0 6 0 a3 3 0 1 0 -6 0zM52.53 392.12 a3 3 0 1 0 6 0 a3 3 0 1 0 -6 0zM52.53 416.12 a3 3 0 1 0 6 0 a3 3 0 1 0 -6 0zM31.75 428.12 a3 3 0 1 0 6 0 a3 3 0 1 0 -6 0zM10.96 416.12 a3 3 0 1 0 6 0 a3 3 0 1 0 -6 0zM10.96 392.12 a3 3 0 1 0 6 0 a3 3 0 1 0 -6 0zM52.53 128.12 a3 3 0 1 0 6 0 a3 3 0 1 0 -6 0zM73.32 140.12 a3 3 0 1 0 6 0 a3 3 0 1 0 -6 0zM73.32 164.12 a3 3 0 1 0 6 0 a3 3 0 1 0 -6 0zM52.53 176.12 a3 3 0 1 0 6 0 a3 3 0 1 0 -6 0zM94.1 176.12 a3 3 0 1 0 6 0 a3 3 0 1 0 -6 0zM94.1 200.12 a3 3 0 1 0 6 0 a3 3 0 1 0 -6 0zM73.32 212.12 a3 3 0 1 0 6 0 a3 3 0 1 0 -6 0zM52.53 200.12 a3 3 0 1 0 6 0 a3 3 0 1 0 -6 0zM73.32 428.12 a3 3 0 1 0 6 0 a3 3 0 1 0 -6 0zM73.32 452.12 a3 3 0 1 0 6 0 a3 3 0 1 0 -6 0zM52.53 464.12 a3 3 0 1 0 6 0 a3 3 0 1 0 -6 0zM31.75 452.12 a3 3 0 1 0 6 0 a3 3 0 1 0 -6 0zM52.53 488.12 a3 3 0 1 0 6 0 a3 3 0 1 0 -6 0zM73.32 500.12 a3 3 0 1 0 6 0 a3 3 0 1 0 -6 0zM73.32 524.12 a3 3 0 1 0 6 0 a3 3 0 1 0 -6 0zM52.53 536.12 a3 3 0 1 0 6 0 a3 3 0 1 0 -6 0zM31.75 524.12 a3 3 0 1 0 6 0 a3 3 0 1 0 -6 0zM31.75 500.12 a3 3 0 1 0 6 0 a3 3 0 1 0 -6 0zM94.1 128.12 a3 3 0 1 0 6 0 a3 3 0 1 0 -6 0zM114.89 140.12 a3 3 0 1 0 6 0 a3 3 0 1 0 -6 0zM114.89 164.12 a3 3 0 1 0 6 0 a3 3 0 1 0 -6 0zM135.67 176.12 a3 3 0 1 0 6 0 a3 3 0 1 0 -6 0zM135.67 200.12 a3 3 0 1 0 6 0 a3 3 0 1 0 -6 0zM114.89 212.12 a3 3 0 1 0 6 0 a3 3 0 1 0 -6 0zM114.89 236.12 a3 3 0 1 0 6 0 a3 3 0 1 0 -6 0zM135.67 248.12 a3 3 0 1 0 6 0 a3 3 0 1 0 -6 0zM135.67 272.12 a3 3 0 1 0 6 0 a3 3 0 1 0 -6 0zM114.89 284.12 a3 3 0 1 0 6 0 a3 3 0 1 0 -6 0zM94.1 272.12 a3 3 0 1 0 6 0 a3 3 0 1 0 -6 0zM94.1 248.12 a3 3 0 1 0 6 0 a3 3 0 1 0 -6 0zM94.1 344.12 a3 3 0 1 0 6 0 a3 3 0 1 0 -6 0zM114.89 356.12 a3 3 0 1 0 6 0 a3 3 0 1 0 -6 0zM114.89 380.12 a3 3 0 1 0 6 0 a3 3 0 1 0 -6 0zM94.1 392.12 a3 3 0 1 0 6 0 a3 3 0 1 0 -6 0zM73.32 380.12 a3 3 0 1 0 6 0 a3 3 0 1 0 -6 0zM73.32 356.12 a3 3 0 1 0 6 0 a3 3 0 1 0 -6 0zM94.1 560.12 a3 3 0 1 0 6 0 a3 3 0 1 0 -6 0zM114.89 572.12 a3 3 0 1 0 6 0 a3 3 0 1 0 -6 0zM114.89 596.12 a3 3 0 1 0 6 0 a3 3 0 1 0 -6 0zM94.1 608.12 a3 3 0 1 0 6 0 a3 3 0 1 0 -6 0zM73.32 596.12 a3 3 0 1 0 6 0 a3 3 0 1 0 -6 0zM73.32 572.12 a3 3 0 1 0 6 0 a3 3 0 1 0 -6 0zM156.46 284.12 a3 3 0 1 0 6 0 a3 3 0 1 0 -6 0zM156.46 308.12 a3 3 0 1 0 6 0 a3 3 0 1 0 -6 0zM135.67 320.12 a3 3 0 1 0 6 0 a3 3 0 1 0 -6 0zM114.89 308.12 a3 3 0 1 0 6 0 a3 3 0 1 0 -6 0zM135.67 344.12 a3 3 0 1 0 6 0 a3 3 0 1 0 -6 0zM156.46 356.12 a3 3 0 1 0 6 0 a3 3 0 1 0 -6 0zM156.46 380.12 a3 3 0 1 0 6 0 a3 3 0 1 0 -6 0zM135.67 392.12 a3 3 0 1 0 6 0 a3 3 0 1 0 -6 0zM135.67 488.12 a3 3 0 1 0 6 0 a3 3 0 1 0 -6 0zM156.46 500.12 a3 3 0 1 0 6 0 a3 3 0 1 0 -6 0zM156.46 524.12 a3 3 0 1 0 6 0 a3 3 0 1 0 -6 0zM135.67 536.12 a3 3 0 1 0 6 0 a3 3 0 1 0 -6 0zM114.89 524.12 a3 3 0 1 0 6 0 a3 3 0 1 0 -6 0zM114.89 500.12 a3 3 0 1 0 6 0 a3 3 0 1 0 -6 0zM135.67 560.12 a3 3 0 1 0 6 0 a3 3 0 1 0 -6 0zM156.46 572.12 a3 3 0 1 0 6 0 a3 3 0 1 0 -6 0zM156.46 596.12 a3 3 0 1 0 6 0 a3 3 0 1 0 -6 0zM135.67 608.12 a3 3 0 1 0 6 0 a3 3 0 1 0 -6 0zM198.03 308.12 a3 3 0 1 0 6 0 a3 3 0 1 0 -6 0zM218.81 320.12 a3 3 0 1 0 6 0 a3 3 0 1 0 -6 0zM218.81 344.12 a3 3 0 1 0 6 0 a3 3 0 1 0 -6 0zM198.03 356.12 a3 3 0 1 0 6 0 a3 3 0 1 0 -6 0zM177.24 344.12 a3 3 0 1 0 6 0 a3 3 0 1 0 -6 0zM177.24 320.12 a3 3 0 1 0 6 0 a3 3 0 1 0 -6 0zM177.24 488.12 a3 3 0 1 0 6 0 a3 3 0 1 0 -6 0zM198.03 500.12 a3 3 0 1 0 6 0 a3 3 0 1 0 -6 0zM198.03 524.12 a3 3 0 1 0 6 0 a3 3 0 1 0 -6 0zM177.24 536.12 a3 3 0 1 0 6 0 a3 3 0 1 0 -6 0zM218.81 536.12 a3 3 0 1 0 6 0 a3 3 0 1 0 -6 0zM218.81 560.12 a3 3 0 1 0 6 0 a3 3 0 1 0 -6 0zM198.03 572.12 a3 3 0 1 0 6 0 a3 3 0 1 0 -6 0zM177.24 560.12 a3 3 0 1 0 6 0 a3 3 0 1 0 -6 0zM218.81 56.12 a3 3 0 1 0 6 0 a3 3 0 1 0 -6 0zM239.6 68.12 a3 3 0 1 0 6 0 a3 3 0 1 0 -6 0zM239.6 92.12 a3 3 0 1 0 6 0 a3 3 0 1 0 -6 0zM218.81 104.12 a3 3 0 1 0 6 0 a3 3 0 1 0 -6 0zM198.03 92.12 a3 3 0 1 0 6 0 a3 3 0 1 0 -6 0zM198.03 68.12 a3 3 0 1 0 6 0 a3 3 0 1 0 -6 0zM218.81 128.12 a3 3 0 1 0 6 0 a3 3 0 1 0 -6 0zM239.6 140.12 a3 3 0 1 0 6 0 a3 3 0 1 0 -6 0zM239.6 164.12 a3 3 0 1 0 6 0 a3 3 0 1 0 -6 0zM218.81 176.12 a3 3 0 1 0 6 0 a3 3 0 1 0 -6 0zM198.03 164.12 a3 3 0 1 0 6 0 a3 3 0 1 0 -6 0zM198.03 140.12 a3 3 0 1 0 6 0 a3 3 0 1 0 -6 0zM239.6 356.12 a3 3 0 1 0 6 0 a3 3 0 1 0 -6 0zM239.6 380.12 a3 3 0 1 0 6 0 a3 3 0 1 0 -6 0zM218.81 392.12 a3 3 0 1 0 6 0 a3 3 0 1 0 -6 0zM198.03 380.12 a3 3 0 1 0 6 0 a3 3 0 1 0 -6 0zM260.38 392.12 a3 3 0 1 0 6 0 a3 3 0 1 0 -6 0zM260.38 416.12 a3 3 0 1 0 6 0 a3 3 0 1 0 -6 0zM239.6 428.12 a3 3 0 1 0 6 0 a3 3 0 1 0 -6 0zM218.81 416.12 a3 3 0 1 0 6 0 a3 3 0 1 0 -6 0zM218.81 488.12 a3 3 0 1 0 6 0 a3 3 0 1 0 -6 0zM239.6 500.12 a3 3 0 1 0 6 0 a3 3 0 1 0 -6 0zM239.6 524.12 a3 3 0 1 0 6 0 a3 3 0 1 0 -6 0zM260.38 344.12 a3 3 0 1 0 6 0 a3 3 0 1 0 -6 0zM281.17 356.12 a3 3 0 1 0 6 0 a3 3 0 1 0 -6 0zM281.17 380.12 a3 3 0 1 0 6 0 a3 3 0 1 0 -6 0zM301.95 392.12 a3 3 0 1 0 6 0 a3 3 0 1 0 -6 0zM301.95 416.12 a3 3 0 1 0 6 0 a3 3 0 1 0 -6 0zM281.17 428.12 a3 3 0 1 0 6 0 a3 3 0 1 0 -6 0zM281.17 524.12 a3 3 0 1 0 6 0 a3 3 0 1 0 -6 0zM301.95 536.12 a3 3 0 1 0 6 0 a3 3 0 1 0 -6 0zM301.95 560.12 a3 3 0 1 0 6 0 a3 3 0 1 0 -6 0zM281.17 572.12 a3 3 0 1 0 6 0 a3 3 0 1 0 -6 0zM260.38 560.12 a3 3 0 1 0 6 0 a3 3 0 1 0 -6 0zM260.38 536.12 a3 3 0 1 0 6 0 a3 3 0 1 0 -6 0zM281.17 596.12 a3 3 0 1 0 6 0 a3 3 0 1 0 -6 0zM260.38 608.12 a3 3 0 1 0 6 0 a3 3 0 1 0 -6 0zM239.6 596.12 a3 3 0 1 0 6 0 a3 3 0 1 0 -6 0zM239.6 572.12 a3 3 0 1 0 6 0 a3 3 0 1 0 -6 0zM343.52 56.12 a3 3 0 1 0 6 0 a3 3 0 1 0 -6 0zM364.31 68.12 a3 3 0 1 0 6 0 a3 3 0 1 0 -6 0zM364.31 92.12 a3 3 0 1 0 6 0 a3 3 0 1 0 -6 0zM343.52 104.12 a3 3 0 1 0 6 0 a3 3 0 1 0 -6 0zM322.74 92.12 a3 3 0 1 0 6 0 a3 3 0 1 0 -6 0zM322.74 68.12 a3 3 0 1 0 6 0 a3 3 0 1 0 -6 0zM343.52 272.12 a3 3 0 1 0 6 0 a3 3 0 1 0 -6 0zM364.31 284.12 a3 3 0 1 0 6 0 a3 3 0 1 0 -6 0zM364.31 308.12 a3 3 0 1 0 6 0 a3 3 0 1 0 -6 0zM343.52 320.12 a3 3 0 1 0 6 0 a3 3 0 1 0 -6 0zM322.74 308.12 a3 3 0 1 0 6 0 a3 3 0 1 0 -6 0zM322.74 284.12 a3 3 0 1 0 6 0 a3 3 0 1 0 -6 0zM405.88 92.12 a3 3 0 1 0 6 0 a3 3 0 1 0 -6 0zM426.66 104.12 a3 3 0 1 0 6 0 a3 3 0 1 0 -6 0zM426.66 128.12 a3 3 0 1 0 6 0 a3 3 0 1 0 -6 0zM405.88 140.12 a3 3 0 1 0 6 0 a3 3 0 1 0 -6 0zM385.09 128.12 a3 3 0 1 0 6 0 a3 3 0 1 0 -6 0zM385.09 104.12 a3 3 0 1 0 6 0 a3 3 0 1 0 -6 0zM405.88 236.12 a3 3 0 1 0 6 0 a3 3 0 1 0 -6 0zM426.66 248.12 a3 3 0 1 0 6 0 a3 3 0 1 0 -6 0zM426.66 272.12 a3 3 0 1 0 6 0 a3 3 0 1 0 -6 0zM405.88 284.12 a3 3 0 1 0 6 0 a3 3 0 1 0 -6 0zM385.09 272.12 a3 3 0 1 0 6 0 a3 3 0 1 0 -6 0zM385.09 248.12 a3 3 0 1 0 6 0 a3 3 0 1 0 -6 0zM385.09 344.12 a3 3 0 1 0 6 0 a3 3 0 1 0 -6 0zM405.88 356.12 a3 3 0 1 0 6 0 a3 3 0 1 0 -6 0zM405.88 380.12 a3 3 0 1 0 6 0 a3 3 0 1 0 -6 0zM385.09 392.12 a3 3 0 1 0 6 0 a3 3 0 1 0 -6 0zM364.31 380.12 a3 3 0 1 0 6 0 a3 3 0 1 0 -6 0zM364.31 356.12 a3 3 0 1 0 6 0 a3 3 0 1 0 -6 0zM405.88 524.12 a3 3 0 1 0 6 0 a3 3 0 1 0 -6 0zM426.66 536.12 a3 3 0 1 0 6 0 a3 3 0 1 0 -6 0zM426.66 560.12 a3 3 0 1 0 6 0 a3 3 0 1 0 -6 0zM405.88 572.12 a3 3 0 1 0 6 0 a3 3 0 1 0 -6 0zM385.09 560.12 a3 3 0 1 0 6 0 a3 3 0 1 0 -6 0zM385.09 536.12 a3 3 0 1 0 6 0 a3 3 0 1 0 -6 0zM468.23 -15.88 a3 3 0 1 0 6 0 a3 3 0 1 0 -6 0zM489.02 -3.88 a3 3 0 1 0 6 0 a3 3 0 1 0 -6 0zM489.02 20.12 a3 3 0 1 0 6 0 a3 3 0 1 0 -6 0zM468.23 32.12 a3 3 0 1 0 6 0 a3 3 0 1 0 -6 0zM447.45 20.12 a3 3 0 1 0 6 0 a3 3 0 1 0 -6 0zM447.45 -3.88 a3 3 0 1 0 6 0 a3 3 0 1 0 -6 0zM468.23 488.12 a3 3 0 1 0 6 0 a3 3 0 1 0 -6 0zM489.02 500.12 a3 3 0 1 0 6 0 a3 3 0 1 0 -6 0zM489.02 524.12 a3 3 0 1 0 6 0 a3 3 0 1 0 -6 0zM468.23 536.12 a3 3 0 1 0 6 0 a3 3 0 1 0 -6 0zM447.45 524.12 a3 3 0 1 0 6 0 a3 3 0 1 0 -6 0zM447.45 500.12 a3 3 0 1 0 6 0 a3 3 0 1 0 -6 0zM530.59 20.12 a3 3 0 1 0 6 0 a3 3 0 1 0 -6 0zM551.38 32.12 a3 3 0 1 0 6 0 a3 3 0 1 0 -6 0zM551.38 56.12 a3 3 0 1 0 6 0 a3 3 0 1 0 -6 0zM530.59 68.12 a3 3 0 1 0 6 0 a3 3 0 1 0 -6 0zM509.8 56.12 a3 3 0 1 0 6 0 a3 3 0 1 0 -6 0zM509.8 32.12 a3 3 0 1 0 6 0 a3 3 0 1 0 -6 0zM530.59 164.12 a3 3 0 1 0 6 0 a3 3 0 1 0 -6 0zM551.38 176.12 a3 3 0 1 0 6 0 a3 3 0 1 0 -6 0zM551.38 200.12 a3 3 0 1 0 6 0 a3 3 0 1 0 -6 0zM530.59 212.12 a3 3 0 1 0 6 0 a3 3 0 1 0 -6 0zM509.8 200.12 a3 3 0 1 0 6 0 a3 3 0 1 0 -6 0zM509.8 176.12 a3 3 0 1 0 6 0 a3 3 0 1 0 -6 0zM509.8 560.12 a3 3 0 1 0 6 0 a3 3 0 1 0 -6 0zM530.59 572.12 a3 3 0 1 0 6 0 a3 3 0 1 0 -6 0zM530.59 596.12 a3 3 0 1 0 6 0 a3 3 0 1 0 -6 0zM509.8 608.12 a3 3 0 1 0 6 0 a3 3 0 1 0 -6 0zM489.02 596.12 a3 3 0 1 0 6 0 a3 3 0 1 0 -6 0zM489.02 572.12 a3 3 0 1 0 6 0 a3 3 0 1 0 -6 0zM572.16 68.12 a3 3 0 1 0 6 0 a3 3 0 1 0 -6 0zM572.16 92.12 a3 3 0 1 0 6 0 a3 3 0 1 0 -6 0zM551.38 104.12 a3 3 0 1 0 6 0 a3 3 0 1 0 -6 0zM530.59 92.12 a3 3 0 1 0 6 0 a3 3 0 1 0 -6 0zM572.16 380.12 a3 3 0 1 0 6 0 a3 3 0 1 0 -6 0zM592.95 392.12 a3 3 0 1 0 6 0 a3 3 0 1 0 -6 0zM592.95 416.12 a3 3 0 1 0 6 0 a3 3 0 1 0 -6 0zM572.16 428.12 a3 3 0 1 0 6 0 a3 3 0 1 0 -6 0zM551.38 416.12 a3 3 0 1 0 6 0 a3 3 0 1 0 -6 0zM551.38 392.12 a3 3 0 1 0 6 0 a3 3 0 1 0 -6 0zM592.95 272.12 a3 3 0 1 0 6 0 a3 3 0 1 0 -6 0zM613.73 284.12 a3 3 0 1 0 6 0 a3 3 0 1 0 -6 0zM613.73 308.12 a3 3 0 1 0 6 0 a3 3 0 1 0 -6 0zM592.95 320.12 a3 3 0 1 0 6 0 a3 3 0 1 0 -6 0zM572.16 308.12 a3 3 0 1 0 6 0 a3 3 0 1 0 -6 0zM572.16 284.12 a3 3 0 1 0 6 0 a3 3 0 1 0 -6 0zM592.95 344.12 a3 3 0 1 0 6 0 a3 3 0 1 0 -6 0zM613.73 356.12 a3 3 0 1 0 6 0 a3 3 0 1 0 -6 0zM613.73 380.12 a3 3 0 1 0 6 0 a3 3 0 1 0 -6 0zM572.16 356.12 a3 3 0 1 0 6 0 a3 3 0 1 0 -6 0zM592.95 488.12 a3 3 0 1 0 6 0 a3 3 0 1 0 -6 0zM613.73 500.12 a3 3 0 1 0 6 0 a3 3 0 1 0 -6 0zM613.73 524.12 a3 3 0 1 0 6 0 a3 3 0 1 0 -6 0zM592.95 536.12 a3 3 0 1 0 6 0 a3 3 0 1 0 -6 0zM572.16 524.12 a3 3 0 1 0 6 0 a3 3 0 1 0 -6 0zM572.16 500.12 a3 3 0 1 0 6 0 a3 3 0 1 0 -6 0zM634.52 272.12 a3 3 0 1 0 6 0 a3 3 0 1 0 -6 0zM655.3 284.12 a3 3 0 1 0 6 0 a3 3 0 1 0 -6 0zM655.3 308.12 a3 3 0 1 0 6 0 a3 3 0 1 0 -6 0zM634.52 320.12 a3 3 0 1 0 6 0 a3 3 0 1 0 -6 0zM655.3 380.12 a3 3 0 1 0 6 0 a3 3 0 1 0 -6 0zM676.09 392.12 a3 3 0 1 0 6 0 a3 3 0 1 0 -6 0zM676.09 416.12 a3 3 0 1 0 6 0 a3 3 0 1 0 -6 0zM655.3 428.12 a3 3 0 1 0 6 0 a3 3 0 1 0 -6 0zM634.52 416.12 a3 3 0 1 0 6 0 a3 3 0 1 0 -6 0zM634.52 392.12 a3 3 0 1 0 6 0 a3 3 0 1 0 -6 0zM676.09 -15.88 a3 3 0 1 0 6 0 a3 3 0 1 0 -6 0zM696.87 -3.88 a3 3 0 1 0 6 0 a3 3 0 1 0 -6 0zM696.87 20.12 a3 3 0 1 0 6 0 a3 3 0 1 0 -6 0zM676.09 32.12 a3 3 0 1 0 6 0 a3 3 0 1 0 -6 0zM655.3 20.12 a3 3 0 1 0 6 0 a3 3 0 1 0 -6 0zM655.3 -3.88 a3 3 0 1 0 6 0 a3 3 0 1 0 -6 0zM717.66 344.12 a3 3 0 1 0 6 0 a3 3 0 1 0 -6 0zM738.44 356.12 a3 3 0 1 0 6 0 a3 3 0 1 0 -6 0zM738.44 380.12 a3 3 0 1 0 6 0 a3 3 0 1 0 -6 0zM717.66 392.12 a3 3 0 1 0 6 0 a3 3 0 1 0 -6 0zM696.87 380.12 a3 3 0 1 0 6 0 a3 3 0 1 0 -6 0zM696.87 356.12 a3 3 0 1 0 6 0 a3 3 0 1 0 -6 0zM738.44 452.12 a3 3 0 1 0 6 0 a3 3 0 1 0 -6 0zM759.23 464.12 a3 3 0 1 0 6 0 a3 3 0 1 0 -6 0zM759.23 488.12 a3 3 0 1 0 6 0 a3 3 0 1 0 -6 0zM738.44 500.12 a3 3 0 1 0 6 0 a3 3 0 1 0 -6 0zM717.66 488.12 a3 3 0 1 0 6 0 a3 3 0 1 0 -6 0zM717.66 464.12 a3 3 0 1 0 6 0 a3 3 0 1 0 -6 0zM738.44 524.12 a3 3 0 1 0 6 0 a3 3 0 1 0 -6 0zM717.66 536.12 a3 3 0 1 0 6 0 a3 3 0 1 0 -6 0zM696.87 524.12 a3 3 0 1 0 6 0 a3 3 0 1 0 -6 0zM696.87 500.12 a3 3 0 1 0 6 0 a3 3 0 1 0 -6 0zM759.23 -15.88 a3 3 0 1 0 6 0 a3 3 0 1 0 -6 0zM780.01 -3.88 a3 3 0 1 0 6 0 a3 3 0 1 0 -6 0zM780.01 20.12 a3 3 0 1 0 6 0 a3 3 0 1 0 -6 0zM759.23 32.12 a3 3 0 1 0 6 0 a3 3 0 1 0 -6 0zM738.44 20.12 a3 3 0 1 0 6 0 a3 3 0 1 0 -6 0zM738.44 -3.88 a3 3 0 1 0 6 0 a3 3 0 1 0 -6 0zM759.23 200.12 a3 3 0 1 0 6 0 a3 3 0 1 0 -6 0zM780.01 212.12 a3 3 0 1 0 6 0 a3 3 0 1 0 -6 0zM780.01 236.12 a3 3 0 1 0 6 0 a3 3 0 1 0 -6 0zM759.23 248.12 a3 3 0 1 0 6 0 a3 3 0 1 0 -6 0zM738.44 236.12 a3 3 0 1 0 6 0 a3 3 0 1 0 -6 0zM738.44 212.12 a3 3 0 1 0 6 0 a3 3 0 1 0 -6 0zM759.23 272.12 a3 3 0 1 0 6 0 a3 3 0 1 0 -6 0zM780.01 284.12 a3 3 0 1 0 6 0 a3 3 0 1 0 -6 0zM780.01 308.12 a3 3 0 1 0 6 0 a3 3 0 1 0 -6 0zM759.23 320.12 a3 3 0 1 0 6 0 a3 3 0 1 0 -6 0zM738.44 308.12 a3 3 0 1 0 6 0 a3 3 0 1 0 -6 0zM738.44 284.12 a3 3 0 1 0 6 0 a3 3 0 1 0 -6 0zM759.23 560.12 a3 3 0 1 0 6 0 a3 3 0 1 0 -6 0zM780.01 572.12 a3 3 0 1 0 6 0 a3 3 0 1 0 -6 0zM780.01 596.12 a3 3 0 1 0 6 0 a3 3 0 1 0 -6 0zM759.23 608.12 a3 3 0 1 0 6 0 a3 3 0 1 0 -6 0zM738.44 596.12 a3 3 0 1 0 6 0 a3 3 0 1 0 -6 0zM738.44 572.12 a3 3 0 1 0 6 0 a3 3 0 1 0 -6 0zM821.58 92.12 a3 3 0 1 0 6 0 a3 3 0 1 0 -6 0zM842.37 104.12 a3 3 0 1 0 6 0 a3 3 0 1 0 -6 0zM842.37 128.12 a3 3 0 1 0 6 0 a3 3 0 1 0 -6 0zM821.58 140.12 a3 3 0 1 0 6 0 a3 3 0 1 0 -6 0zM800.8 128.12 a3 3 0 1 0 6 0 a3 3 0 1 0 -6 0zM800.8 104.12 a3 3 0 1 0 6 0 a3 3 0 1 0 -6 0zM842.37 56.12 a3 3 0 1 0 6 0 a3 3 0 1 0 -6 0zM863.15 68.12 a3 3 0 1 0 6 0 a3 3 0 1 0 -6 0zM863.15 92.12 a3 3 0 1 0 6 0 a3 3 0 1 0 -6 0zM821.58 68.12 a3 3 0 1 0 6 0 a3 3 0 1 0 -6 0zM842.37 344.12 a3 3 0 1 0 6 0 a3 3 0 1 0 -6 0zM863.15 356.12 a3 3 0 1 0 6 0 a3 3 0 1 0 -6 0zM863.15 380.12 a3 3 0 1 0 6 0 a3 3 0 1 0 -6 0zM842.37 392.12 a3 3 0 1 0 6 0 a3 3 0 1 0 -6 0zM821.58 380.12 a3 3 0 1 0 6 0 a3 3 0 1 0 -6 0zM821.58 356.12 a3 3 0 1 0 6 0 a3 3 0 1 0 -6 0zM863.15 524.12 a3 3 0 1 0 6 0 a3 3 0 1 0 -6 0zM883.94 536.12 a3 3 0 1 0 6 0 a3 3 0 1 0 -6 0zM883.94 560.12 a3 3 0 1 0 6 0 a3 3 0 1 0 -6 0zM863.15 572.12 a3 3 0 1 0 6 0 a3 3 0 1 0 -6 0zM842.37 560.12 a3 3 0 1 0 6 0 a3 3 0 1 0 -6 0zM842.37 536.12 a3 3 0 1 0 6 0 a3 3 0 1 0 -6 0zM883.94 272.12 a3 3 0 1 0 6 0 a3 3 0 1 0 -6 0zM904.72 284.12 a3 3 0 1 0 6 0 a3 3 0 1 0 -6 0zM904.72 308.12 a3 3 0 1 0 6 0 a3 3 0 1 0 -6 0zM883.94 320.12 a3 3 0 1 0 6 0 a3 3 0 1 0 -6 0zM863.15 308.12 a3 3 0 1 0 6 0 a3 3 0 1 0 -6 0zM863.15 284.12 a3 3 0 1 0 6 0 a3 3 0 1 0 -6 0zM904.72 524.12 a3 3 0 1 0 6 0 a3 3 0 1 0 -6 0zM925.51 536.12 a3 3 0 1 0 6 0 a3 3 0 1 0 -6 0zM925.51 560.12 a3 3 0 1 0 6 0 a3 3 0 1 0 -6 0zM904.72 572.12 a3 3 0 1 0 6 0 a3 3 0 1 0 -6 0zM946.29 20.12 a3 3 0 1 0 6 0 a3 3 0 1 0 -6 0zM967.08 32.12 a3 3 0 1 0 6 0 a3 3 0 1 0 -6 0zM967.08 56.12 a3 3 0 1 0 6 0 a3 3 0 1 0 -6 0zM946.29 68.12 a3 3 0 1 0 6 0 a3 3 0 1 0 -6 0zM925.51 56.12 a3 3 0 1 0 6 0 a3 3 0 1 0 -6 0zM925.51 32.12 a3 3 0 1 0 6 0 a3 3 0 1 0 -6 0zM946.29 524.12 a3 3 0 1 0 6 0 a3 3 0 1 0 -6 0zM967.08 536.12 a3 3 0 1 0 6 0 a3 3 0 1 0 -6 0zM967.08 560.12 a3 3 0 1 0 6 0 a3 3 0 1 0 -6 0zM946.29 572.12 a3 3 0 1 0 6 0 a3 3 0 1 0 -6 0zM946.29 596.12 a3 3 0 1 0 6 0 a3 3 0 1 0 -6 0zM925.51 608.12 a3 3 0 1 0 6 0 a3 3 0 1 0 -6 0zM904.72 596.12 a3 3 0 1 0 6 0 a3 3 0 1 0 -6 0zM987.86 68.12 a3 3 0 1 0 6 0 a3 3 0 1 0 -6 0zM987.86 92.12 a3 3 0 1 0 6 0 a3 3 0 1 0 -6 0zM967.08 104.12 a3 3 0 1 0 6 0 a3 3 0 1 0 -6 0zM946.29 92.12 a3 3 0 1 0 6 0 a3 3 0 1 0 -6 0zM1008.65 56.12 a3 3 0 1 0 6 0 a3 3 0 1 0 -6 0zM1029.43 68.12 a3 3 0 1 0 6 0 a3 3 0 1 0 -6 0zM1029.43 92.12 a3 3 0 1 0 6 0 a3 3 0 1 0 -6 0zM1008.65 104.12 a3 3 0 1 0 6 0 a3 3 0 1 0 -6 0zM1008.65 200.12 a3 3 0 1 0 6 0 a3 3 0 1 0 -6 0zM1029.43 212.12 a3 3 0 1 0 6 0 a3 3 0 1 0 -6 0zM1029.43 236.12 a3 3 0 1 0 6 0 a3 3 0 1 0 -6 0zM1008.65 248.12 a3 3 0 1 0 6 0 a3 3 0 1 0 -6 0zM987.86 236.12 a3 3 0 1 0 6 0 a3 3 0 1 0 -6 0zM987.86 212.12 a3 3 0 1 0 6 0 a3 3 0 1 0 -6 0zM1008.65 272.12 a3 3 0 1 0 6 0 a3 3 0 1 0 -6 0zM1029.43 284.12 a3 3 0 1 0 6 0 a3 3 0 1 0 -6 0zM1029.43 308.12 a3 3 0 1 0 6 0 a3 3 0 1 0 -6 0zM1008.65 320.12 a3 3 0 1 0 6 0 a3 3 0 1 0 -6 0zM987.86 308.12 a3 3 0 1 0 6 0 a3 3 0 1 0 -6 0zM987.86 284.12 a3 3 0 1 0 6 0 a3 3 0 1 0 -6 0zM1050.22 56.12 a3 3 0 1 0 6 0 a3 3 0 1 0 -6 0zM1071.01 68.12 a3 3 0 1 0 6 0 a3 3 0 1 0 -6 0zM1071.01 92.12 a3 3 0 1 0 6 0 a3 3 0 1 0 -6 0zM1050.22 104.12 a3 3 0 1 0 6 0 a3 3 0 1 0 -6 0zM1091.79 200.12 a3 3 0 1 0 6 0 a3 3 0 1 0 -6 0zM1112.58 212.12 a3 3 0 1 0 6 0 a3 3 0 1 0 -6 0zM1112.58 236.12 a3 3 0 1 0 6 0 a3 3 0 1 0 -6 0zM1091.79 248.12 a3 3 0 1 0 6 0 a3 3 0 1 0 -6 0zM1071.01 236.12 a3 3 0 1 0 6 0 a3 3 0 1 0 -6 0zM1071.01 212.12 a3 3 0 1 0 6 0 a3 3 0 1 0 -6 0zM1133.36 248.12 a3 3 0 1 0 6 0 a3 3 0 1 0 -6 0zM1133.36 272.12 a3 3 0 1 0 6 0 a3 3 0 1 0 -6 0zM1112.58 284.12 a3 3 0 1 0 6 0 a3 3 0 1 0 -6 0zM1091.79 272.12 a3 3 0 1 0 6 0 a3 3 0 1 0 -6 0zM1154.15 308.12 a3 3 0 1 0 6 0 a3 3 0 1 0 -6 0zM1174.93 320.12 a3 3 0 1 0 6 0 a3 3 0 1 0 -6 0zM1174.93 344.12 a3 3 0 1 0 6 0 a3 3 0 1 0 -6 0zM1154.15 356.12 a3 3 0 1 0 6 0 a3 3 0 1 0 -6 0zM1133.36 344.12 a3 3 0 1 0 6 0 a3 3 0 1 0 -6 0zM1133.36 320.12 a3 3 0 1 0 6 0 a3 3 0 1 0 -6 0zM1133.36 416.12 a3 3 0 1 0 6 0 a3 3 0 1 0 -6 0zM1154.15 428.12 a3 3 0 1 0 6 0 a3 3 0 1 0 -6 0zM1154.15 452.12 a3 3 0 1 0 6 0 a3 3 0 1 0 -6 0zM1133.36 464.12 a3 3 0 1 0 6 0 a3 3 0 1 0 -6 0zM1112.58 452.12 a3 3 0 1 0 6 0 a3 3 0 1 0 -6 0zM1112.58 428.12 a3 3 0 1 0 6 0 a3 3 0 1 0 -6 0zM1133.36 560.12 a3 3 0 1 0 6 0 a3 3 0 1 0 -6 0zM1154.15 572.12 a3 3 0 1 0 6 0 a3 3 0 1 0 -6 0zM1154.15 596.12 a3 3 0 1 0 6 0 a3 3 0 1 0 -6 0zM1133.36 608.12 a3 3 0 1 0 6 0 a3 3 0 1 0 -6 0zM1112.58 596.12 a3 3 0 1 0 6 0 a3 3 0 1 0 -6 0zM1112.58 572.12 a3 3 0 1 0 6 0 a3 3 0 1 0 -6 0zM1174.93 -15.88 a3 3 0 1 0 6 0 a3 3 0 1 0 -6 0zM1195.72 -3.88 a3 3 0 1 0 6 0 a3 3 0 1 0 -6 0zM1195.72 20.12 a3 3 0 1 0 6 0 a3 3 0 1 0 -6 0zM1174.93 32.12 a3 3 0 1 0 6 0 a3 3 0 1 0 -6 0zM1154.15 20.12 a3 3 0 1 0 6 0 a3 3 0 1 0 -6 0zM1154.15 -3.88 a3 3 0 1 0 6 0 a3 3 0 1 0 -6 0zM1174.93 128.12 a3 3 0 1 0 6 0 a3 3 0 1 0 -6 0zM1195.72 140.12 a3 3 0 1 0 6 0 a3 3 0 1 0 -6 0zM1195.72 164.12 a3 3 0 1 0 6 0 a3 3 0 1 0 -6 0zM1174.93 176.12 a3 3 0 1 0 6 0 a3 3 0 1 0 -6 0zM1154.15 164.12 a3 3 0 1 0 6 0 a3 3 0 1 0 -6 0zM1154.15 140.12 a3 3 0 1 0 6 0 a3 3 0 1 0 -6 0zM1174.93 200.12 a3 3 0 1 0 6 0 a3 3 0 1 0 -6 0zM1195.72 212.12 a3 3 0 1 0 6 0 a3 3 0 1 0 -6 0zM1195.72 236.12 a3 3 0 1 0 6 0 a3 3 0 1 0 -6 0zM1174.93 248.12 a3 3 0 1 0 6 0 a3 3 0 1 0 -6 0zM1154.15 236.12 a3 3 0 1 0 6 0 a3 3 0 1 0 -6 0zM1154.15 212.12 a3 3 0 1 0 6 0 a3 3 0 1 0 -6 0zM1174.93 272.12 a3 3 0 1 0 6 0 a3 3 0 1 0 -6 0zM1195.72 284.12 a3 3 0 1 0 6 0 a3 3 0 1 0 -6 0zM1195.72 308.12 a3 3 0 1 0 6 0 a3 3 0 1 0 -6 0zM1154.15 284.12 a3 3 0 1 0 6 0 a3 3 0 1 0 -6 0zM1195.72 380.12 a3 3 0 1 0 6 0 a3 3 0 1 0 -6 0zM1216.5 392.12 a3 3 0 1 0 6 0 a3 3 0 1 0 -6 0zM1216.5 416.12 a3 3 0 1 0 6 0 a3 3 0 1 0 -6 0zM1195.72 428.12 a3 3 0 1 0 6 0 a3 3 0 1 0 -6 0zM1174.93 416.12 a3 3 0 1 0 6 0 a3 3 0 1 0 -6 0zM1174.93 392.12 a3 3 0 1 0 6 0 a3 3 0 1 0 -6 0zM1195.72 452.12 a3 3 0 1 0 6 0 a3 3 0 1 0 -6 0zM1174.93 464.12 a3 3 0 1 0 6 0 a3 3 0 1 0 -6 0zM1174.93 560.12 a3 3 0 1 0 6 0 a3 3 0 1 0 -6 0zM1195.72 572.12 a3 3 0 1 0 6 0 a3 3 0 1 0 -6 0zM1195.72 596.12 a3 3 0 1 0 6 0 a3 3 0 1 0 -6 0zM1174.93 608.12 a3 3 0 1 0 6 0 a3 3 0 1 0 -6 0zM1216.5 56.12 a3 3 0 1 0 6 0 a3 3 0 1 0 -6 0zM1237.29 68.12 a3 3 0 1 0 6 0 a3 3 0 1 0 -6 0zM1237.29 92.12 a3 3 0 1 0 6 0 a3 3 0 1 0 -6 0zM1216.5 104.12 a3 3 0 1 0 6 0 a3 3 0 1 0 -6 0zM1195.72 92.12 a3 3 0 1 0 6 0 a3 3 0 1 0 -6 0zM1195.72 68.12 a3 3 0 1 0 6 0 a3 3 0 1 0 -6 0zM1216.5 128.12 a3 3 0 1 0 6 0 a3 3 0 1 0 -6 0zM1237.29 140.12 a3 3 0 1 0 6 0 a3 3 0 1 0 -6 0zM1237.29 164.12 a3 3 0 1 0 6 0 a3 3 0 1 0 -6 0zM1216.5 176.12 a3 3 0 1 0 6 0 a3 3 0 1 0 -6 0zM1258.07 176.12 a3 3 0 1 0 6 0 a3 3 0 1 0 -6 0zM1258.07 200.12 a3 3 0 1 0 6 0 a3 3 0 1 0 -6 0zM1237.29 212.12 a3 3 0 1 0 6 0 a3 3 0 1 0 -6 0zM1216.5 200.12 a3 3 0 1 0 6 0 a3 3 0 1 0 -6 0zM1278.86 452.12 a3 3 0 1 0 6 0 a3 3 0 1 0 -6 0zM1299.64 464.12 a3 3 0 1 0 6 0 a3 3 0 1 0 -6 0zM1299.64 488.12 a3 3 0 1 0 6 0 a3 3 0 1 0 -6 0zM1278.86 500.12 a3 3 0 1 0 6 0 a3 3 0 1 0 -6 0zM1258.07 488.12 a3 3 0 1 0 6 0 a3 3 0 1 0 -6 0zM1258.07 464.12 a3 3 0 1 0 6 0 a3 3 0 1 0 -6 0zM1299.64 128.12 a3 3 0 1 0 6 0 a3 3 0 1 0 -6 0zM1320.43 140.12 a3 3 0 1 0 6 0 a3 3 0 1 0 -6 0zM1320.43 164.12 a3 3 0 1 0 6 0 a3 3 0 1 0 -6 0zM1299.64 176.12 a3 3 0 1 0 6 0 a3 3 0 1 0 -6 0zM1278.86 164.12 a3 3 0 1 0 6 0 a3 3 0 1 0 -6 0zM1278.86 140.12 a3 3 0 1 0 6 0 a3 3 0 1 0 -6 0zM1341.21 176.12 a3 3 0 1 0 6 0 a3 3 0 1 0 -6 0zM1341.21 200.12 a3 3 0 1 0 6 0 a3 3 0 1 0 -6 0zM1320.43 212.12 a3 3 0 1 0 6 0 a3 3 0 1 0 -6 0zM1299.64 200.12 a3 3 0 1 0 6 0 a3 3 0 1 0 -6 0zM1320.43 380.12 a3 3 0 1 0 6 0 a3 3 0 1 0 -6 0zM1341.21 392.12 a3 3 0 1 0 6 0 a3 3 0 1 0 -6 0zM1341.21 416.12 a3 3 0 1 0 6 0 a3 3 0 1 0 -6 0zM1320.43 428.12 a3 3 0 1 0 6 0 a3 3 0 1 0 -6 0zM1299.64 416.12 a3 3 0 1 0 6 0 a3 3 0 1 0 -6 0zM1299.64 392.12 a3 3 0 1 0 6 0 a3 3 0 1 0 -6 0zM1362 20.12 a3 3 0 1 0 6 0 a3 3 0 1 0 -6 0zM1382.78 32.12 a3 3 0 1 0 6 0 a3 3 0 1 0 -6 0zM1382.78 56.12 a3 3 0 1 0 6 0 a3 3 0 1 0 -6 0zM1362 68.12 a3 3 0 1 0 6 0 a3 3 0 1 0 -6 0zM1341.21 56.12 a3 3 0 1 0 6 0 a3 3 0 1 0 -6 0zM1341.21 32.12 a3 3 0 1 0 6 0 a3 3 0 1 0 -6 0zM1362 92.12 a3 3 0 1 0 6 0 a3 3 0 1 0 -6 0zM1341.21 104.12 a3 3 0 1 0 6 0 a3 3 0 1 0 -6 0zM1320.43 92.12 a3 3 0 1 0 6 0 a3 3 0 1 0 -6 0zM1320.43 68.12 a3 3 0 1 0 6 0 a3 3 0 1 0 -6 0zM1362 212.12 a3 3 0 1 0 6 0 a3 3 0 1 0 -6 0zM1362 236.12 a3 3 0 1 0 6 0 a3 3 0 1 0 -6 0zM1341.21 248.12 a3 3 0 1 0 6 0 a3 3 0 1 0 -6 0zM1320.43 236.12 a3 3 0 1 0 6 0 a3 3 0 1 0 -6 0zM1362 308.12 a3 3 0 1 0 6 0 a3 3 0 1 0 -6 0zM1382.78 320.12 a3 3 0 1 0 6 0 a3 3 0 1 0 -6 0zM1382.78 344.12 a3 3 0 1 0 6 0 a3 3 0 1 0 -6 0zM1362 356.12 a3 3 0 1 0 6 0 a3 3 0 1 0 -6 0zM1341.21 344.12 a3 3 0 1 0 6 0 a3 3 0 1 0 -6 0zM1341.21 320.12 a3 3 0 1 0 6 0 a3 3 0 1 0 -6 0zM1362 452.12 a3 3 0 1 0 6 0 a3 3 0 1 0 -6 0zM1382.78 464.12 a3 3 0 1 0 6 0 a3 3 0 1 0 -6 0zM1382.78 488.12 a3 3 0 1 0 6 0 a3 3 0 1 0 -6 0zM1362 500.12 a3 3 0 1 0 6 0 a3 3 0 1 0 -6 0zM1341.21 488.12 a3 3 0 1 0 6 0 a3 3 0 1 0 -6 0zM1341.21 464.12 a3 3 0 1 0 6 0 a3 3 0 1 0 -6 0zM1362 524.12 a3 3 0 1 0 6 0 a3 3 0 1 0 -6 0zM1382.78 536.12 a3 3 0 1 0 6 0 a3 3 0 1 0 -6 0zM1382.78 560.12 a3 3 0 1 0 6 0 a3 3 0 1 0 -6 0zM1362 572.12 a3 3 0 1 0 6 0 a3 3 0 1 0 -6 0zM1341.21 560.12 a3 3 0 1 0 6 0 a3 3 0 1 0 -6 0zM1341.21 536.12 a3 3 0 1 0 6 0 a3 3 0 1 0 -6 0zM1382.78 -15.88 a3 3 0 1 0 6 0 a3 3 0 1 0 -6 0zM1403.57 -3.88 a3 3 0 1 0 6 0 a3 3 0 1 0 -6 0zM1403.57 20.12 a3 3 0 1 0 6 0 a3 3 0 1 0 -6 0zM1362 -3.88 a3 3 0 1 0 6 0 a3 3 0 1 0 -6 0zM1403.57 308.12 a3 3 0 1 0 6 0 a3 3 0 1 0 -6 0zM1424.35 320.12 a3 3 0 1 0 6 0 a3 3 0 1 0 -6 0zM1424.35 344.12 a3 3 0 1 0 6 0 a3 3 0 1 0 -6 0zM1403.57 356.12 a3 3 0 1 0 6 0 a3 3 0 1 0 -6 0zM1403.57 380.12 a3 3 0 1 0 6 0 a3 3 0 1 0 -6 0zM1382.78 392.12 a3 3 0 1 0 6 0 a3 3 0 1 0 -6 0zM1362 380.12 a3 3 0 1 0 6 0 a3 3 0 1 0 -6 0zM1403.57 572.12 a3 3 0 1 0 6 0 a3 3 0 1 0 -6 0zM1403.57 596.12 a3 3 0 1 0 6 0 a3 3 0 1 0 -6 0zM1382.78 608.12 a3 3 0 1 0 6 0 a3 3 0 1 0 -6 0zM1362 596.12 a3 3 0 1 0 6 0 a3 3 0 1 0 -6 0zM1445.14 20.12 a3 3 0 1 0 6 0 a3 3 0 1 0 -6 0zM1465.92 32.12 a3 3 0 1 0 6 0 a3 3 0 1 0 -6 0zM1465.92 56.12 a3 3 0 1 0 6 0 a3 3 0 1 0 -6 0zM1445.14 68.12 a3 3 0 1 0 6 0 a3 3 0 1 0 -6 0zM1424.35 56.12 a3 3 0 1 0 6 0 a3 3 0 1 0 -6 0zM1424.35 32.12 a3 3 0 1 0 6 0 a3 3 0 1 0 -6 0zM1445.14 356.12 a3 3 0 1 0 6 0 a3 3 0 1 0 -6 0zM1445.14 380.12 a3 3 0 1 0 6 0 a3 3 0 1 0 -6 0zM1424.35 392.12 a3 3 0 1 0 6 0 a3 3 0 1 0 -6 0zM1445.14 452.12 a3 3 0 1 0 6 0 a3 3 0 1 0 -6 0zM1465.92 464.12 a3 3 0 1 0 6 0 a3 3 0 1 0 -6 0zM1465.92 488.12 a3 3 0 1 0 6 0 a3 3 0 1 0 -6 0zM1445.14 500.12 a3 3 0 1 0 6 0 a3 3 0 1 0 -6 0zM1424.35 488.12 a3 3 0 1 0 6 0 a3 3 0 1 0 -6 0zM1424.35 464.12 a3 3 0 1 0 6 0 a3 3 0 1 0 -6 0z" fill="url(&quot;#SvgjsLinearGradient1888&quot;)"></path><path d="M1.59 50.15L20.64 61.15L20.64 83.15L1.59 94.15L-17.46 83.15L-17.46 61.15zM20.64 149.15L39.7 160.15L39.7 182.15L20.64 193.15L1.59 182.15L1.59 160.15zM1.59 182.15L20.64 193.15L20.64 215.15L1.59 226.15L-17.46 215.15L-17.46 193.15zM1.59 248.15L20.64 259.15L20.64 281.15L1.59 292.15L-17.46 281.15L-17.46 259.15zM20.64 281.15L39.7 292.15L39.7 314.15L20.64 325.15L1.59 314.15L1.59 292.15zM20.64 347.15L39.7 358.15L39.7 380.15L20.64 391.15L1.59 380.15L1.59 358.15zM1.59 380.15L20.64 391.15L20.64 413.15L1.59 424.15L-17.46 413.15L-17.46 391.15zM20.64 479.15L39.7 490.15L39.7 512.15L20.64 523.15L1.59 512.15L1.59 490.15zM1.59 512.15L20.64 523.15L20.64 545.15L1.59 556.15L-17.46 545.15L-17.46 523.15zM20.64 545.15L39.7 556.15L39.7 578.15L20.64 589.15L1.59 578.15L1.59 556.15zM39.7 -15.85L58.75 -4.85L58.75 17.15L39.7 28.15L20.64 17.15L20.64 -4.85zM58.75 17.15L77.8 28.15L77.8 50.15L58.75 61.15L39.7 50.15L39.7 28.15zM39.7 50.15L58.75 61.15L58.75 83.15L39.7 94.15L20.64 83.15L20.64 61.15zM58.75 215.15L77.8 226.15L77.8 248.15L58.75 259.15L39.7 248.15L39.7 226.15zM39.7 512.15L58.75 523.15L58.75 545.15L39.7 556.15L20.64 545.15L20.64 523.15zM96.86 83.15L115.91 94.15L115.91 116.15L96.86 127.15L77.8 116.15L77.8 94.15zM96.86 149.15L115.91 160.15L115.91 182.15L96.86 193.15L77.8 182.15L77.8 160.15zM96.86 215.15L115.91 226.15L115.91 248.15L96.86 259.15L77.8 248.15L77.8 226.15zM96.86 281.15L115.91 292.15L115.91 314.15L96.86 325.15L77.8 314.15L77.8 292.15zM77.8 314.15L96.86 325.15L96.86 347.15L77.8 358.15L58.75 347.15L58.75 325.15zM96.86 347.15L115.91 358.15L115.91 380.15L96.86 391.15L77.8 380.15L77.8 358.15zM96.86 413.15L115.91 424.15L115.91 446.15L96.86 457.15L77.8 446.15L77.8 424.15zM77.8 512.15L96.86 523.15L96.86 545.15L77.8 556.15L58.75 545.15L58.75 523.15zM115.91 116.15L134.96 127.15L134.96 149.15L115.91 160.15L96.86 149.15L96.86 127.15zM115.91 182.15L134.96 193.15L134.96 215.15L115.91 226.15L96.86 215.15L96.86 193.15zM134.96 479.15L154.01 490.15L154.01 512.15L134.96 523.15L115.91 512.15L115.91 490.15zM134.96 545.15L154.01 556.15L154.01 578.15L134.96 589.15L115.91 578.15L115.91 556.15zM154.01 -15.85L173.07 -4.85L173.07 17.15L154.01 28.15L134.96 17.15L134.96 -4.85zM173.07 17.15L192.12 28.15L192.12 50.15L173.07 61.15L154.01 50.15L154.01 28.15zM154.01 182.15L173.07 193.15L173.07 215.15L154.01 226.15L134.96 215.15L134.96 193.15zM173.07 215.15L192.12 226.15L192.12 248.15L173.07 259.15L154.01 248.15L154.01 226.15zM173.07 281.15L192.12 292.15L192.12 314.15L173.07 325.15L154.01 314.15L154.01 292.15zM154.01 314.15L173.07 325.15L173.07 347.15L154.01 358.15L134.96 347.15L134.96 325.15zM173.07 347.15L192.12 358.15L192.12 380.15L173.07 391.15L154.01 380.15L154.01 358.15zM154.01 380.15L173.07 391.15L173.07 413.15L154.01 424.15L134.96 413.15L134.96 391.15zM173.07 413.15L192.12 424.15L192.12 446.15L173.07 457.15L154.01 446.15L154.01 424.15zM173.07 479.15L192.12 490.15L192.12 512.15L173.07 523.15L154.01 512.15L154.01 490.15zM211.17 17.15L230.23 28.15L230.23 50.15L211.17 61.15L192.12 50.15L192.12 28.15zM192.12 50.15L211.17 61.15L211.17 83.15L192.12 94.15L173.07 83.15L173.07 61.15zM211.17 83.15L230.23 94.15L230.23 116.15L211.17 127.15L192.12 116.15L192.12 94.15zM211.17 215.15L230.23 226.15L230.23 248.15L211.17 259.15L192.12 248.15L192.12 226.15zM211.17 281.15L230.23 292.15L230.23 314.15L211.17 325.15L192.12 314.15L192.12 292.15zM192.12 380.15L211.17 391.15L211.17 413.15L192.12 424.15L173.07 413.15L173.07 391.15zM211.17 479.15L230.23 490.15L230.23 512.15L211.17 523.15L192.12 512.15L192.12 490.15zM192.12 512.15L211.17 523.15L211.17 545.15L192.12 556.15L173.07 545.15L173.07 523.15zM211.17 545.15L230.23 556.15L230.23 578.15L211.17 589.15L192.12 578.15L192.12 556.15zM249.28 17.15L268.33 28.15L268.33 50.15L249.28 61.15L230.23 50.15L230.23 28.15zM249.28 83.15L268.33 94.15L268.33 116.15L249.28 127.15L230.23 116.15L230.23 94.15zM249.28 149.15L268.33 160.15L268.33 182.15L249.28 193.15L230.23 182.15L230.23 160.15zM249.28 281.15L268.33 292.15L268.33 314.15L249.28 325.15L230.23 314.15L230.23 292.15zM268.33 -15.85L287.39 -4.85L287.39 17.15L268.33 28.15L249.28 17.15L249.28 -4.85zM287.39 17.15L306.44 28.15L306.44 50.15L287.39 61.15L268.33 50.15L268.33 28.15zM268.33 50.15L287.39 61.15L287.39 83.15L268.33 94.15L249.28 83.15L249.28 61.15zM287.39 83.15L306.44 94.15L306.44 116.15L287.39 127.15L268.33 116.15L268.33 94.15zM268.33 116.15L287.39 127.15L287.39 149.15L268.33 160.15L249.28 149.15L249.28 127.15zM268.33 182.15L287.39 193.15L287.39 215.15L268.33 226.15L249.28 215.15L249.28 193.15zM287.39 413.15L306.44 424.15L306.44 446.15L287.39 457.15L268.33 446.15L268.33 424.15zM306.44 -15.85L325.49 -4.85L325.49 17.15L306.44 28.15L287.39 17.15L287.39 -4.85zM306.44 50.15L325.49 61.15L325.49 83.15L306.44 94.15L287.39 83.15L287.39 61.15zM306.44 116.15L325.49 127.15L325.49 149.15L306.44 160.15L287.39 149.15L287.39 127.15zM325.49 149.15L344.55 160.15L344.55 182.15L325.49 193.15L306.44 182.15L306.44 160.15zM306.44 182.15L325.49 193.15L325.49 215.15L306.44 226.15L287.39 215.15L287.39 193.15zM306.44 248.15L325.49 259.15L325.49 281.15L306.44 292.15L287.39 281.15L287.39 259.15zM325.49 281.15L344.55 292.15L344.55 314.15L325.49 325.15L306.44 314.15L306.44 292.15zM325.49 347.15L344.55 358.15L344.55 380.15L325.49 391.15L306.44 380.15L306.44 358.15zM306.44 380.15L325.49 391.15L325.49 413.15L306.44 424.15L287.39 413.15L287.39 391.15zM325.49 479.15L344.55 490.15L344.55 512.15L325.49 523.15L306.44 512.15L306.44 490.15zM344.55 -15.85L363.6 -4.85L363.6 17.15L344.55 28.15L325.49 17.15L325.49 -4.85zM363.6 17.15L382.65 28.15L382.65 50.15L363.6 61.15L344.55 50.15L344.55 28.15zM344.55 50.15L363.6 61.15L363.6 83.15L344.55 94.15L325.49 83.15L325.49 61.15zM363.6 149.15L382.65 160.15L382.65 182.15L363.6 193.15L344.55 182.15L344.55 160.15zM363.6 215.15L382.65 226.15L382.65 248.15L363.6 259.15L344.55 248.15L344.55 226.15zM344.55 248.15L363.6 259.15L363.6 281.15L344.55 292.15L325.49 281.15L325.49 259.15zM363.6 347.15L382.65 358.15L382.65 380.15L363.6 391.15L344.55 380.15L344.55 358.15zM401.71 347.15L420.76 358.15L420.76 380.15L401.71 391.15L382.65 380.15L382.65 358.15zM420.76 50.15L439.81 61.15L439.81 83.15L420.76 94.15L401.71 83.15L401.71 61.15zM439.81 83.15L458.86 94.15L458.86 116.15L439.81 127.15L420.76 116.15L420.76 94.15zM439.81 215.15L458.86 226.15L458.86 248.15L439.81 259.15L420.76 248.15L420.76 226.15zM420.76 248.15L439.81 259.15L439.81 281.15L420.76 292.15L401.71 281.15L401.71 259.15zM420.76 446.15L439.81 457.15L439.81 479.15L420.76 490.15L401.71 479.15L401.71 457.15zM439.81 545.15L458.86 556.15L458.86 578.15L439.81 589.15L420.76 578.15L420.76 556.15zM458.86 -15.85L477.92 -4.85L477.92 17.15L458.86 28.15L439.81 17.15L439.81 -4.85zM477.92 17.15L496.97 28.15L496.97 50.15L477.92 61.15L458.86 50.15L458.86 28.15zM477.92 281.15L496.97 292.15L496.97 314.15L477.92 325.15L458.86 314.15L458.86 292.15zM458.86 314.15L477.92 325.15L477.92 347.15L458.86 358.15L439.81 347.15L439.81 325.15zM477.92 413.15L496.97 424.15L496.97 446.15L477.92 457.15L458.86 446.15L458.86 424.15zM458.86 446.15L477.92 457.15L477.92 479.15L458.86 490.15L439.81 479.15L439.81 457.15zM477.92 479.15L496.97 490.15L496.97 512.15L477.92 523.15L458.86 512.15L458.86 490.15zM458.86 512.15L477.92 523.15L477.92 545.15L458.86 556.15L439.81 545.15L439.81 523.15zM477.92 545.15L496.97 556.15L496.97 578.15L477.92 589.15L458.86 578.15L458.86 556.15zM516.02 83.15L535.08 94.15L535.08 116.15L516.02 127.15L496.97 116.15L496.97 94.15zM496.97 116.15L516.02 127.15L516.02 149.15L496.97 160.15L477.92 149.15L477.92 127.15zM516.02 149.15L535.08 160.15L535.08 182.15L516.02 193.15L496.97 182.15L496.97 160.15zM496.97 380.15L516.02 391.15L516.02 413.15L496.97 424.15L477.92 413.15L477.92 391.15zM516.02 413.15L535.08 424.15L535.08 446.15L516.02 457.15L496.97 446.15L496.97 424.15zM496.97 446.15L516.02 457.15L516.02 479.15L496.97 490.15L477.92 479.15L477.92 457.15zM535.08 50.15L554.13 61.15L554.13 83.15L535.08 94.15L516.02 83.15L516.02 61.15zM535.08 116.15L554.13 127.15L554.13 149.15L535.08 160.15L516.02 149.15L516.02 127.15zM535.08 182.15L554.13 193.15L554.13 215.15L535.08 226.15L516.02 215.15L516.02 193.15zM535.08 314.15L554.13 325.15L554.13 347.15L535.08 358.15L516.02 347.15L516.02 325.15zM554.13 347.15L573.18 358.15L573.18 380.15L554.13 391.15L535.08 380.15L535.08 358.15zM535.08 380.15L554.13 391.15L554.13 413.15L535.08 424.15L516.02 413.15L516.02 391.15zM573.18 50.15L592.24 61.15L592.24 83.15L573.18 94.15L554.13 83.15L554.13 61.15zM573.18 182.15L592.24 193.15L592.24 215.15L573.18 226.15L554.13 215.15L554.13 193.15zM592.24 215.15L611.29 226.15L611.29 248.15L592.24 259.15L573.18 248.15L573.18 226.15zM573.18 380.15L592.24 391.15L592.24 413.15L573.18 424.15L554.13 413.15L554.13 391.15zM592.24 413.15L611.29 424.15L611.29 446.15L592.24 457.15L573.18 446.15L573.18 424.15zM592.24 479.15L611.29 490.15L611.29 512.15L592.24 523.15L573.18 512.15L573.18 490.15zM573.18 512.15L592.24 523.15L592.24 545.15L573.18 556.15L554.13 545.15L554.13 523.15zM592.24 545.15L611.29 556.15L611.29 578.15L592.24 589.15L573.18 578.15L573.18 556.15zM630.34 17.15L649.4 28.15L649.4 50.15L630.34 61.15L611.29 50.15L611.29 28.15zM630.34 83.15L649.4 94.15L649.4 116.15L630.34 127.15L611.29 116.15L611.29 94.15zM630.34 149.15L649.4 160.15L649.4 182.15L630.34 193.15L611.29 182.15L611.29 160.15zM611.29 182.15L630.34 193.15L630.34 215.15L611.29 226.15L592.24 215.15L592.24 193.15zM611.29 248.15L630.34 259.15L630.34 281.15L611.29 292.15L592.24 281.15L592.24 259.15zM630.34 281.15L649.4 292.15L649.4 314.15L630.34 325.15L611.29 314.15L611.29 292.15zM630.34 413.15L649.4 424.15L649.4 446.15L630.34 457.15L611.29 446.15L611.29 424.15zM611.29 446.15L630.34 457.15L630.34 479.15L611.29 490.15L592.24 479.15L592.24 457.15zM630.34 479.15L649.4 490.15L649.4 512.15L630.34 523.15L611.29 512.15L611.29 490.15zM630.34 545.15L649.4 556.15L649.4 578.15L630.34 589.15L611.29 578.15L611.29 556.15zM668.45 17.15L687.5 28.15L687.5 50.15L668.45 61.15L649.4 50.15L649.4 28.15zM649.4 50.15L668.45 61.15L668.45 83.15L649.4 94.15L630.34 83.15L630.34 61.15zM649.4 248.15L668.45 259.15L668.45 281.15L649.4 292.15L630.34 281.15L630.34 259.15zM668.45 281.15L687.5 292.15L687.5 314.15L668.45 325.15L649.4 314.15L649.4 292.15zM649.4 314.15L668.45 325.15L668.45 347.15L649.4 358.15L630.34 347.15L630.34 325.15zM668.45 347.15L687.5 358.15L687.5 380.15L668.45 391.15L649.4 380.15L649.4 358.15zM649.4 512.15L668.45 523.15L668.45 545.15L649.4 556.15L630.34 545.15L630.34 523.15zM706.55 83.15L725.61 94.15L725.61 116.15L706.55 127.15L687.5 116.15L687.5 94.15zM706.55 281.15L725.61 292.15L725.61 314.15L706.55 325.15L687.5 314.15L687.5 292.15zM687.5 380.15L706.55 391.15L706.55 413.15L687.5 424.15L668.45 413.15L668.45 391.15zM706.55 545.15L725.61 556.15L725.61 578.15L706.55 589.15L687.5 578.15L687.5 556.15zM725.61 -15.85L744.66 -4.85L744.66 17.15L725.61 28.15L706.55 17.15L706.55 -4.85zM744.66 17.15L763.71 28.15L763.71 50.15L744.66 61.15L725.61 50.15L725.61 28.15zM725.61 50.15L744.66 61.15L744.66 83.15L725.61 94.15L706.55 83.15L706.55 61.15zM725.61 182.15L744.66 193.15L744.66 215.15L725.61 226.15L706.55 215.15L706.55 193.15zM744.66 215.15L763.71 226.15L763.71 248.15L744.66 259.15L725.61 248.15L725.61 226.15zM744.66 413.15L763.71 424.15L763.71 446.15L744.66 457.15L725.61 446.15L725.61 424.15zM725.61 446.15L744.66 457.15L744.66 479.15L725.61 490.15L706.55 479.15L706.55 457.15zM725.61 512.15L744.66 523.15L744.66 545.15L725.61 556.15L706.55 545.15L706.55 523.15zM744.66 545.15L763.71 556.15L763.71 578.15L744.66 589.15L725.61 578.15L725.61 556.15zM782.77 17.15L801.82 28.15L801.82 50.15L782.77 61.15L763.71 50.15L763.71 28.15zM763.71 50.15L782.77 61.15L782.77 83.15L763.71 94.15L744.66 83.15L744.66 61.15zM782.77 149.15L801.82 160.15L801.82 182.15L782.77 193.15L763.71 182.15L763.71 160.15zM763.71 248.15L782.77 259.15L782.77 281.15L763.71 292.15L744.66 281.15L744.66 259.15zM782.77 281.15L801.82 292.15L801.82 314.15L782.77 325.15L763.71 314.15L763.71 292.15zM763.71 446.15L782.77 457.15L782.77 479.15L763.71 490.15L744.66 479.15L744.66 457.15zM782.77 479.15L801.82 490.15L801.82 512.15L782.77 523.15L763.71 512.15L763.71 490.15zM782.77 545.15L801.82 556.15L801.82 578.15L782.77 589.15L763.71 578.15L763.71 556.15zM820.87 17.15L839.93 28.15L839.93 50.15L820.87 61.15L801.82 50.15L801.82 28.15zM801.82 50.15L820.87 61.15L820.87 83.15L801.82 94.15L782.77 83.15L782.77 61.15zM820.87 149.15L839.93 160.15L839.93 182.15L820.87 193.15L801.82 182.15L801.82 160.15zM801.82 182.15L820.87 193.15L820.87 215.15L801.82 226.15L782.77 215.15L782.77 193.15zM820.87 413.15L839.93 424.15L839.93 446.15L820.87 457.15L801.82 446.15L801.82 424.15zM858.98 17.15L878.03 28.15L878.03 50.15L858.98 61.15L839.93 50.15L839.93 28.15zM839.93 50.15L858.98 61.15L858.98 83.15L839.93 94.15L820.87 83.15L820.87 61.15zM858.98 83.15L878.03 94.15L878.03 116.15L858.98 127.15L839.93 116.15L839.93 94.15zM839.93 116.15L858.98 127.15L858.98 149.15L839.93 160.15L820.87 149.15L820.87 127.15zM858.98 281.15L878.03 292.15L878.03 314.15L858.98 325.15L839.93 314.15L839.93 292.15zM839.93 314.15L858.98 325.15L858.98 347.15L839.93 358.15L820.87 347.15L820.87 325.15zM839.93 446.15L858.98 457.15L858.98 479.15L839.93 490.15L820.87 479.15L820.87 457.15zM858.98 479.15L878.03 490.15L878.03 512.15L858.98 523.15L839.93 512.15L839.93 490.15zM878.03 116.15L897.09 127.15L897.09 149.15L878.03 160.15L858.98 149.15L858.98 127.15zM897.09 149.15L916.14 160.15L916.14 182.15L897.09 193.15L878.03 182.15L878.03 160.15zM897.09 215.15L916.14 226.15L916.14 248.15L897.09 259.15L878.03 248.15L878.03 226.15zM897.09 413.15L916.14 424.15L916.14 446.15L897.09 457.15L878.03 446.15L878.03 424.15zM916.14 50.15L935.19 61.15L935.19 83.15L916.14 94.15L897.09 83.15L897.09 61.15zM916.14 314.15L935.19 325.15L935.19 347.15L916.14 358.15L897.09 347.15L897.09 325.15zM973.3 17.15L992.35 28.15L992.35 50.15L973.3 61.15L954.25 50.15L954.25 28.15zM954.25 50.15L973.3 61.15L973.3 83.15L954.25 94.15L935.19 83.15L935.19 61.15zM973.3 83.15L992.35 94.15L992.35 116.15L973.3 127.15L954.25 116.15L954.25 94.15zM954.25 116.15L973.3 127.15L973.3 149.15L954.25 160.15L935.19 149.15L935.19 127.15zM973.3 149.15L992.35 160.15L992.35 182.15L973.3 193.15L954.25 182.15L954.25 160.15zM973.3 281.15L992.35 292.15L992.35 314.15L973.3 325.15L954.25 314.15L954.25 292.15zM954.25 314.15L973.3 325.15L973.3 347.15L954.25 358.15L935.19 347.15L935.19 325.15zM973.3 413.15L992.35 424.15L992.35 446.15L973.3 457.15L954.25 446.15L954.25 424.15zM992.35 -15.85L1011.4 -4.85L1011.4 17.15L992.35 28.15L973.3 17.15L973.3 -4.85zM992.35 50.15L1011.4 61.15L1011.4 83.15L992.35 94.15L973.3 83.15L973.3 61.15zM1011.4 83.15L1030.46 94.15L1030.46 116.15L1011.4 127.15L992.35 116.15L992.35 94.15zM1011.4 149.15L1030.46 160.15L1030.46 182.15L1011.4 193.15L992.35 182.15L992.35 160.15zM1011.4 215.15L1030.46 226.15L1030.46 248.15L1011.4 259.15L992.35 248.15L992.35 226.15zM992.35 314.15L1011.4 325.15L1011.4 347.15L992.35 358.15L973.3 347.15L973.3 325.15zM1011.4 347.15L1030.46 358.15L1030.46 380.15L1011.4 391.15L992.35 380.15L992.35 358.15zM1011.4 413.15L1030.46 424.15L1030.46 446.15L1011.4 457.15L992.35 446.15L992.35 424.15zM992.35 512.15L1011.4 523.15L1011.4 545.15L992.35 556.15L973.3 545.15L973.3 523.15zM1049.51 17.15L1068.56 28.15L1068.56 50.15L1049.51 61.15L1030.46 50.15L1030.46 28.15zM1030.46 248.15L1049.51 259.15L1049.51 281.15L1030.46 292.15L1011.4 281.15L1011.4 259.15zM1030.46 314.15L1049.51 325.15L1049.51 347.15L1030.46 358.15L1011.4 347.15L1011.4 325.15zM1030.46 380.15L1049.51 391.15L1049.51 413.15L1030.46 424.15L1011.4 413.15L1011.4 391.15zM1049.51 413.15L1068.56 424.15L1068.56 446.15L1049.51 457.15L1030.46 446.15L1030.46 424.15zM1049.51 545.15L1068.56 556.15L1068.56 578.15L1049.51 589.15L1030.46 578.15L1030.46 556.15zM1087.62 17.15L1106.67 28.15L1106.67 50.15L1087.62 61.15L1068.56 50.15L1068.56 28.15zM1068.56 50.15L1087.62 61.15L1087.62 83.15L1068.56 94.15L1049.51 83.15L1049.51 61.15zM1087.62 149.15L1106.67 160.15L1106.67 182.15L1087.62 193.15L1068.56 182.15L1068.56 160.15zM1068.56 248.15L1087.62 259.15L1087.62 281.15L1068.56 292.15L1049.51 281.15L1049.51 259.15zM1068.56 314.15L1087.62 325.15L1087.62 347.15L1068.56 358.15L1049.51 347.15L1049.51 325.15zM1087.62 479.15L1106.67 490.15L1106.67 512.15L1087.62 523.15L1068.56 512.15L1068.56 490.15zM1087.62 545.15L1106.67 556.15L1106.67 578.15L1087.62 589.15L1068.56 578.15L1068.56 556.15zM1125.72 149.15L1144.78 160.15L1144.78 182.15L1125.72 193.15L1106.67 182.15L1106.67 160.15zM1106.67 182.15L1125.72 193.15L1125.72 215.15L1106.67 226.15L1087.62 215.15L1087.62 193.15zM1125.72 215.15L1144.78 226.15L1144.78 248.15L1125.72 259.15L1106.67 248.15L1106.67 226.15zM1125.72 281.15L1144.78 292.15L1144.78 314.15L1125.72 325.15L1106.67 314.15L1106.67 292.15zM1106.67 314.15L1125.72 325.15L1125.72 347.15L1106.67 358.15L1087.62 347.15L1087.62 325.15zM1125.72 347.15L1144.78 358.15L1144.78 380.15L1125.72 391.15L1106.67 380.15L1106.67 358.15zM1106.67 380.15L1125.72 391.15L1125.72 413.15L1106.67 424.15L1087.62 413.15L1087.62 391.15zM1125.72 479.15L1144.78 490.15L1144.78 512.15L1125.72 523.15L1106.67 512.15L1106.67 490.15zM1144.78 -15.85L1163.83 -4.85L1163.83 17.15L1144.78 28.15L1125.72 17.15L1125.72 -4.85zM1144.78 116.15L1163.83 127.15L1163.83 149.15L1144.78 160.15L1125.72 149.15L1125.72 127.15zM1163.83 281.15L1182.88 292.15L1182.88 314.15L1163.83 325.15L1144.78 314.15L1144.78 292.15zM1144.78 380.15L1163.83 391.15L1163.83 413.15L1144.78 424.15L1125.72 413.15L1125.72 391.15zM1163.83 413.15L1182.88 424.15L1182.88 446.15L1163.83 457.15L1144.78 446.15L1144.78 424.15zM1144.78 446.15L1163.83 457.15L1163.83 479.15L1144.78 490.15L1125.72 479.15L1125.72 457.15zM1182.88 -15.85L1201.94 -4.85L1201.94 17.15L1182.88 28.15L1163.83 17.15L1163.83 -4.85zM1201.94 17.15L1220.99 28.15L1220.99 50.15L1201.94 61.15L1182.88 50.15L1182.88 28.15zM1182.88 50.15L1201.94 61.15L1201.94 83.15L1182.88 94.15L1163.83 83.15L1163.83 61.15zM1182.88 182.15L1201.94 193.15L1201.94 215.15L1182.88 226.15L1163.83 215.15L1163.83 193.15zM1201.94 281.15L1220.99 292.15L1220.99 314.15L1201.94 325.15L1182.88 314.15L1182.88 292.15zM1182.88 380.15L1201.94 391.15L1201.94 413.15L1182.88 424.15L1163.83 413.15L1163.83 391.15zM1201.94 413.15L1220.99 424.15L1220.99 446.15L1201.94 457.15L1182.88 446.15L1182.88 424.15zM1182.88 446.15L1201.94 457.15L1201.94 479.15L1182.88 490.15L1163.83 479.15L1163.83 457.15zM1201.94 545.15L1220.99 556.15L1220.99 578.15L1201.94 589.15L1182.88 578.15L1182.88 556.15zM1240.04 17.15L1259.09 28.15L1259.09 50.15L1240.04 61.15L1220.99 50.15L1220.99 28.15zM1220.99 182.15L1240.04 193.15L1240.04 215.15L1220.99 226.15L1201.94 215.15L1201.94 193.15zM1240.04 215.15L1259.09 226.15L1259.09 248.15L1240.04 259.15L1220.99 248.15L1220.99 226.15zM1240.04 281.15L1259.09 292.15L1259.09 314.15L1240.04 325.15L1220.99 314.15L1220.99 292.15zM1240.04 347.15L1259.09 358.15L1259.09 380.15L1240.04 391.15L1220.99 380.15L1220.99 358.15zM1240.04 413.15L1259.09 424.15L1259.09 446.15L1240.04 457.15L1220.99 446.15L1220.99 424.15zM1240.04 545.15L1259.09 556.15L1259.09 578.15L1240.04 589.15L1220.99 578.15L1220.99 556.15zM1259.09 182.15L1278.15 193.15L1278.15 215.15L1259.09 226.15L1240.04 215.15L1240.04 193.15zM1278.15 281.15L1297.2 292.15L1297.2 314.15L1278.15 325.15L1259.09 314.15L1259.09 292.15zM1259.09 380.15L1278.15 391.15L1278.15 413.15L1259.09 424.15L1240.04 413.15L1240.04 391.15zM1278.15 479.15L1297.2 490.15L1297.2 512.15L1278.15 523.15L1259.09 512.15L1259.09 490.15zM1297.2 50.15L1316.25 61.15L1316.25 83.15L1297.2 94.15L1278.15 83.15L1278.15 61.15zM1297.2 116.15L1316.25 127.15L1316.25 149.15L1297.2 160.15L1278.15 149.15L1278.15 127.15zM1297.2 248.15L1316.25 259.15L1316.25 281.15L1297.2 292.15L1278.15 281.15L1278.15 259.15zM1316.25 413.15L1335.31 424.15L1335.31 446.15L1316.25 457.15L1297.2 446.15L1297.2 424.15zM1297.2 446.15L1316.25 457.15L1316.25 479.15L1297.2 490.15L1278.15 479.15L1278.15 457.15zM1297.2 512.15L1316.25 523.15L1316.25 545.15L1297.2 556.15L1278.15 545.15L1278.15 523.15zM1316.25 545.15L1335.31 556.15L1335.31 578.15L1316.25 589.15L1297.2 578.15L1297.2 556.15zM1354.36 17.15L1373.41 28.15L1373.41 50.15L1354.36 61.15L1335.31 50.15L1335.31 28.15zM1354.36 83.15L1373.41 94.15L1373.41 116.15L1354.36 127.15L1335.31 116.15L1335.31 94.15zM1354.36 149.15L1373.41 160.15L1373.41 182.15L1354.36 193.15L1335.31 182.15L1335.31 160.15zM1335.31 248.15L1354.36 259.15L1354.36 281.15L1335.31 292.15L1316.25 281.15L1316.25 259.15zM1354.36 347.15L1373.41 358.15L1373.41 380.15L1354.36 391.15L1335.31 380.15L1335.31 358.15zM1354.36 479.15L1373.41 490.15L1373.41 512.15L1354.36 523.15L1335.31 512.15L1335.31 490.15zM1354.36 545.15L1373.41 556.15L1373.41 578.15L1354.36 589.15L1335.31 578.15L1335.31 556.15zM1392.47 83.15L1411.52 94.15L1411.52 116.15L1392.47 127.15L1373.41 116.15L1373.41 94.15zM1373.41 116.15L1392.47 127.15L1392.47 149.15L1373.41 160.15L1354.36 149.15L1354.36 127.15zM1373.41 182.15L1392.47 193.15L1392.47 215.15L1373.41 226.15L1354.36 215.15L1354.36 193.15zM1392.47 215.15L1411.52 226.15L1411.52 248.15L1392.47 259.15L1373.41 248.15L1373.41 226.15zM1392.47 347.15L1411.52 358.15L1411.52 380.15L1392.47 391.15L1373.41 380.15L1373.41 358.15zM1392.47 413.15L1411.52 424.15L1411.52 446.15L1392.47 457.15L1373.41 446.15L1373.41 424.15zM1373.41 446.15L1392.47 457.15L1392.47 479.15L1373.41 490.15L1354.36 479.15L1354.36 457.15zM1373.41 512.15L1392.47 523.15L1392.47 545.15L1373.41 556.15L1354.36 545.15L1354.36 523.15zM1392.47 545.15L1411.52 556.15L1411.52 578.15L1392.47 589.15L1373.41 578.15L1373.41 556.15zM1411.52 -15.85L1430.57 -4.85L1430.57 17.15L1411.52 28.15L1392.47 17.15L1392.47 -4.85zM1430.57 83.15L1449.63 94.15L1449.63 116.15L1430.57 127.15L1411.52 116.15L1411.52 94.15zM1411.52 182.15L1430.57 193.15L1430.57 215.15L1411.52 226.15L1392.47 215.15L1392.47 193.15zM1430.57 215.15L1449.63 226.15L1449.63 248.15L1430.57 259.15L1411.52 248.15L1411.52 226.15zM1411.52 314.15L1430.57 325.15L1430.57 347.15L1411.52 358.15L1392.47 347.15L1392.47 325.15zM1430.57 347.15L1449.63 358.15L1449.63 380.15L1430.57 391.15L1411.52 380.15L1411.52 358.15zM1411.52 380.15L1430.57 391.15L1430.57 413.15L1411.52 424.15L1392.47 413.15L1392.47 391.15zM1430.57 413.15L1449.63 424.15L1449.63 446.15L1430.57 457.15L1411.52 446.15L1411.52 424.15zM1411.52 446.15L1430.57 457.15L1430.57 479.15L1411.52 490.15L1392.47 479.15L1392.47 457.15zM1430.57 545.15L1449.63 556.15L1449.63 578.15L1430.57 589.15L1411.52 578.15L1411.52 556.15z" stroke="rgba(6, 80, 156, 0.93)" stroke-width="2"></path></g><defs><mask id="SvgjsMask1887"><rect width="1440" height="560" fill="#ffffff"></rect></mask><linearGradient x1="220.03199999999998" y1="-220.02399999999997" x2="1219.9679999999998" y2="780.024" gradientUnits="userSpaceOnUse" id="SvgjsLinearGradient1888"><stop stop-color="rgba(158, 0, 129, 1)" offset="0"></stop><stop stop-color="rgba(0, 255, 21, 1)" offset="1"></stop></linearGradient></defs></svg>