<svg xmlns="http://www.w3.org/2000/svg" version="1.1" xmlns:xlink="http://www.w3.org/1999/xlink" xmlns:svgjs="http://svgjs.dev/svgjs" width="1440" height="560" preserveAspectRatio="none" viewBox="0 0 1440 560"><g mask="url(&quot;#SvgjsMask2302&quot;)" fill="none"><rect width="1440" height="560" x="0" y="0" fill="#0e2a47"></rect><path d="M37.16 -29.78L79.6 -5.28L79.6 43.72L37.16 68.22L-5.28 43.72L-5.28 -5.28zM79.6 484.72L122.03 509.22L122.03 558.22L79.6 582.72L37.16 558.22L37.16 509.22zM164.47 190.72L206.91 215.22L206.91 264.22L164.47 288.72L122.03 264.22L122.03 215.22zM206.91 264.22L249.34 288.72L249.34 337.72L206.91 362.22L164.47 337.72L164.47 288.72zM291.78 264.22L334.22 288.72L334.22 337.72L291.78 362.22L249.34 337.72L249.34 288.72zM291.78 411.22L334.22 435.72L334.22 484.72L291.78 509.22L249.34 484.72L249.34 435.72zM419.09 43.72L461.52 68.22L461.52 117.22L419.09 141.72L376.65 117.22L376.65 68.22zM376.65 264.22L419.09 288.72L419.09 337.72L376.65 362.22L334.22 337.72L334.22 288.72zM461.52 117.22L503.96 141.72L503.96 190.72L461.52 215.22L419.09 190.72L419.09 141.72zM461.52 264.22L503.96 288.72L503.96 337.72L461.52 362.22L419.09 337.72L419.09 288.72zM546.4 -29.78L588.83 -5.28L588.83 43.72L546.4 68.22L503.96 43.72L503.96 -5.28zM588.83 43.72L631.27 68.22L631.27 117.22L588.83 141.72L546.4 117.22L546.4 68.22zM588.83 190.72L631.27 215.22L631.27 264.22L588.83 288.72L546.4 264.22L546.4 215.22zM588.83 484.72L631.27 509.22L631.27 558.22L588.83 582.72L546.4 558.22L546.4 509.22zM631.27 -29.78L673.71 -5.28L673.71 43.72L631.27 68.22L588.83 43.72L588.83 -5.28zM673.71 190.72L716.14 215.22L716.14 264.22L673.71 288.72L631.27 264.22L631.27 215.22zM673.71 484.72L716.14 509.22L716.14 558.22L673.71 582.72L631.27 558.22L631.27 509.22zM631.27 558.22L673.71 582.72L673.71 631.72L631.27 656.22L588.83 631.72L588.83 582.72zM758.58 43.72L801.02 68.22L801.02 117.22L758.58 141.72L716.14 117.22L716.14 68.22zM758.58 484.72L801.02 509.22L801.02 558.22L758.58 582.72L716.14 558.22L716.14 509.22zM716.14 558.22L758.58 582.72L758.58 631.72L716.14 656.22L673.71 631.72L673.71 582.72zM843.45 484.72L885.89 509.22L885.89 558.22L843.45 582.72L801.02 558.22L801.02 509.22zM1013.2 190.72L1055.63 215.22L1055.63 264.22L1013.2 288.72L970.76 264.22L970.76 215.22zM1055.63 -29.78L1098.07 -5.28L1098.07 43.72L1055.63 68.22L1013.2 43.72L1013.2 -5.28zM1098.07 484.72L1140.51 509.22L1140.51 558.22L1098.07 582.72L1055.63 558.22L1055.63 509.22zM1055.63 558.22L1098.07 582.72L1098.07 631.72L1055.63 656.22L1013.2 631.72L1013.2 582.72zM1182.94 190.72L1225.38 215.22L1225.38 264.22L1182.94 288.72L1140.51 264.22L1140.51 215.22zM1140.51 264.22L1182.94 288.72L1182.94 337.72L1140.51 362.22L1098.07 337.72L1098.07 288.72zM1182.94 337.72L1225.38 362.22L1225.38 411.22L1182.94 435.72L1140.51 411.22L1140.51 362.22zM1267.82 337.72L1310.25 362.22L1310.25 411.22L1267.82 435.72L1225.38 411.22L1225.38 362.22zM1437.56 43.72L1480 68.22L1480 117.22L1437.56 141.72L1395.13 117.22L1395.13 68.22zM1437.56 484.72L1480 509.22L1480 558.22L1437.56 582.72L1395.13 558.22L1395.13 509.22z" stroke="url(&quot;#SvgjsLinearGradient2303&quot;)" stroke-width="2"></path><path d="M32.26 -29.78 a4.9 4.9 0 1 0 9.8 0 a4.9 4.9 0 1 0 -9.8 0zM74.7 -5.28 a4.9 4.9 0 1 0 9.8 0 a4.9 4.9 0 1 0 -9.8 0zM74.7 43.72 a4.9 4.9 0 1 0 9.8 0 a4.9 4.9 0 1 0 -9.8 0zM32.26 68.22 a4.9 4.9 0 1 0 9.8 0 a4.9 4.9 0 1 0 -9.8 0zM-10.18 43.72 a4.9 4.9 0 1 0 9.8 0 a4.9 4.9 0 1 0 -9.8 0zM-10.18 -5.28 a4.9 4.9 0 1 0 9.8 0 a4.9 4.9 0 1 0 -9.8 0zM74.7 484.72 a4.9 4.9 0 1 0 9.8 0 a4.9 4.9 0 1 0 -9.8 0zM117.13 509.22 a4.9 4.9 0 1 0 9.8 0 a4.9 4.9 0 1 0 -9.8 0zM117.13 558.22 a4.9 4.9 0 1 0 9.8 0 a4.9 4.9 0 1 0 -9.8 0zM74.7 582.72 a4.9 4.9 0 1 0 9.8 0 a4.9 4.9 0 1 0 -9.8 0zM32.26 558.22 a4.9 4.9 0 1 0 9.8 0 a4.9 4.9 0 1 0 -9.8 0zM32.26 509.22 a4.9 4.9 0 1 0 9.8 0 a4.9 4.9 0 1 0 -9.8 0zM159.57 190.72 a4.9 4.9 0 1 0 9.8 0 a4.9 4.9 0 1 0 -9.8 0zM202.01 215.22 a4.9 4.9 0 1 0 9.8 0 a4.9 4.9 0 1 0 -9.8 0zM202.01 264.22 a4.9 4.9 0 1 0 9.8 0 a4.9 4.9 0 1 0 -9.8 0zM159.57 288.72 a4.9 4.9 0 1 0 9.8 0 a4.9 4.9 0 1 0 -9.8 0zM117.13 264.22 a4.9 4.9 0 1 0 9.8 0 a4.9 4.9 0 1 0 -9.8 0zM117.13 215.22 a4.9 4.9 0 1 0 9.8 0 a4.9 4.9 0 1 0 -9.8 0zM244.44 288.72 a4.9 4.9 0 1 0 9.8 0 a4.9 4.9 0 1 0 -9.8 0zM244.44 337.72 a4.9 4.9 0 1 0 9.8 0 a4.9 4.9 0 1 0 -9.8 0zM202.01 362.22 a4.9 4.9 0 1 0 9.8 0 a4.9 4.9 0 1 0 -9.8 0zM159.57 337.72 a4.9 4.9 0 1 0 9.8 0 a4.9 4.9 0 1 0 -9.8 0zM286.88 264.22 a4.9 4.9 0 1 0 9.8 0 a4.9 4.9 0 1 0 -9.8 0zM329.32 288.72 a4.9 4.9 0 1 0 9.8 0 a4.9 4.9 0 1 0 -9.8 0zM329.32 337.72 a4.9 4.9 0 1 0 9.8 0 a4.9 4.9 0 1 0 -9.8 0zM286.88 362.22 a4.9 4.9 0 1 0 9.8 0 a4.9 4.9 0 1 0 -9.8 0zM286.88 411.22 a4.9 4.9 0 1 0 9.8 0 a4.9 4.9 0 1 0 -9.8 0zM329.32 435.72 a4.9 4.9 0 1 0 9.8 0 a4.9 4.9 0 1 0 -9.8 0zM329.32 484.72 a4.9 4.9 0 1 0 9.8 0 a4.9 4.9 0 1 0 -9.8 0zM286.88 509.22 a4.9 4.9 0 1 0 9.8 0 a4.9 4.9 0 1 0 -9.8 0zM244.44 484.72 a4.9 4.9 0 1 0 9.8 0 a4.9 4.9 0 1 0 -9.8 0zM244.44 435.72 a4.9 4.9 0 1 0 9.8 0 a4.9 4.9 0 1 0 -9.8 0zM414.19 43.72 a4.9 4.9 0 1 0 9.8 0 a4.9 4.9 0 1 0 -9.8 0zM456.62 68.22 a4.9 4.9 0 1 0 9.8 0 a4.9 4.9 0 1 0 -9.8 0zM456.62 117.22 a4.9 4.9 0 1 0 9.8 0 a4.9 4.9 0 1 0 -9.8 0zM414.19 141.72 a4.9 4.9 0 1 0 9.8 0 a4.9 4.9 0 1 0 -9.8 0zM371.75 117.22 a4.9 4.9 0 1 0 9.8 0 a4.9 4.9 0 1 0 -9.8 0zM371.75 68.22 a4.9 4.9 0 1 0 9.8 0 a4.9 4.9 0 1 0 -9.8 0zM371.75 264.22 a4.9 4.9 0 1 0 9.8 0 a4.9 4.9 0 1 0 -9.8 0zM414.19 288.72 a4.9 4.9 0 1 0 9.8 0 a4.9 4.9 0 1 0 -9.8 0zM414.19 337.72 a4.9 4.9 0 1 0 9.8 0 a4.9 4.9 0 1 0 -9.8 0zM371.75 362.22 a4.9 4.9 0 1 0 9.8 0 a4.9 4.9 0 1 0 -9.8 0zM499.06 141.72 a4.9 4.9 0 1 0 9.8 0 a4.9 4.9 0 1 0 -9.8 0zM499.06 190.72 a4.9 4.9 0 1 0 9.8 0 a4.9 4.9 0 1 0 -9.8 0zM456.62 215.22 a4.9 4.9 0 1 0 9.8 0 a4.9 4.9 0 1 0 -9.8 0zM414.19 190.72 a4.9 4.9 0 1 0 9.8 0 a4.9 4.9 0 1 0 -9.8 0zM456.62 264.22 a4.9 4.9 0 1 0 9.8 0 a4.9 4.9 0 1 0 -9.8 0zM499.06 288.72 a4.9 4.9 0 1 0 9.8 0 a4.9 4.9 0 1 0 -9.8 0zM499.06 337.72 a4.9 4.9 0 1 0 9.8 0 a4.9 4.9 0 1 0 -9.8 0zM456.62 362.22 a4.9 4.9 0 1 0 9.8 0 a4.9 4.9 0 1 0 -9.8 0zM541.5 -29.78 a4.9 4.9 0 1 0 9.8 0 a4.9 4.9 0 1 0 -9.8 0zM583.93 -5.28 a4.9 4.9 0 1 0 9.8 0 a4.9 4.9 0 1 0 -9.8 0zM583.93 43.72 a4.9 4.9 0 1 0 9.8 0 a4.9 4.9 0 1 0 -9.8 0zM541.5 68.22 a4.9 4.9 0 1 0 9.8 0 a4.9 4.9 0 1 0 -9.8 0zM499.06 43.72 a4.9 4.9 0 1 0 9.8 0 a4.9 4.9 0 1 0 -9.8 0zM499.06 -5.28 a4.9 4.9 0 1 0 9.8 0 a4.9 4.9 0 1 0 -9.8 0zM626.37 68.22 a4.9 4.9 0 1 0 9.8 0 a4.9 4.9 0 1 0 -9.8 0zM626.37 117.22 a4.9 4.9 0 1 0 9.8 0 a4.9 4.9 0 1 0 -9.8 0zM583.93 141.72 a4.9 4.9 0 1 0 9.8 0 a4.9 4.9 0 1 0 -9.8 0zM541.5 117.22 a4.9 4.9 0 1 0 9.8 0 a4.9 4.9 0 1 0 -9.8 0zM583.93 190.72 a4.9 4.9 0 1 0 9.8 0 a4.9 4.9 0 1 0 -9.8 0zM626.37 215.22 a4.9 4.9 0 1 0 9.8 0 a4.9 4.9 0 1 0 -9.8 0zM626.37 264.22 a4.9 4.9 0 1 0 9.8 0 a4.9 4.9 0 1 0 -9.8 0zM583.93 288.72 a4.9 4.9 0 1 0 9.8 0 a4.9 4.9 0 1 0 -9.8 0zM541.5 264.22 a4.9 4.9 0 1 0 9.8 0 a4.9 4.9 0 1 0 -9.8 0zM541.5 215.22 a4.9 4.9 0 1 0 9.8 0 a4.9 4.9 0 1 0 -9.8 0zM583.93 484.72 a4.9 4.9 0 1 0 9.8 0 a4.9 4.9 0 1 0 -9.8 0zM626.37 509.22 a4.9 4.9 0 1 0 9.8 0 a4.9 4.9 0 1 0 -9.8 0zM626.37 558.22 a4.9 4.9 0 1 0 9.8 0 a4.9 4.9 0 1 0 -9.8 0zM583.93 582.72 a4.9 4.9 0 1 0 9.8 0 a4.9 4.9 0 1 0 -9.8 0zM541.5 558.22 a4.9 4.9 0 1 0 9.8 0 a4.9 4.9 0 1 0 -9.8 0zM541.5 509.22 a4.9 4.9 0 1 0 9.8 0 a4.9 4.9 0 1 0 -9.8 0zM626.37 -29.78 a4.9 4.9 0 1 0 9.8 0 a4.9 4.9 0 1 0 -9.8 0zM668.81 -5.28 a4.9 4.9 0 1 0 9.8 0 a4.9 4.9 0 1 0 -9.8 0zM668.81 43.72 a4.9 4.9 0 1 0 9.8 0 a4.9 4.9 0 1 0 -9.8 0zM668.81 190.72 a4.9 4.9 0 1 0 9.8 0 a4.9 4.9 0 1 0 -9.8 0zM711.24 215.22 a4.9 4.9 0 1 0 9.8 0 a4.9 4.9 0 1 0 -9.8 0zM711.24 264.22 a4.9 4.9 0 1 0 9.8 0 a4.9 4.9 0 1 0 -9.8 0zM668.81 288.72 a4.9 4.9 0 1 0 9.8 0 a4.9 4.9 0 1 0 -9.8 0zM668.81 484.72 a4.9 4.9 0 1 0 9.8 0 a4.9 4.9 0 1 0 -9.8 0zM711.24 509.22 a4.9 4.9 0 1 0 9.8 0 a4.9 4.9 0 1 0 -9.8 0zM711.24 558.22 a4.9 4.9 0 1 0 9.8 0 a4.9 4.9 0 1 0 -9.8 0zM668.81 582.72 a4.9 4.9 0 1 0 9.8 0 a4.9 4.9 0 1 0 -9.8 0zM668.81 631.72 a4.9 4.9 0 1 0 9.8 0 a4.9 4.9 0 1 0 -9.8 0zM626.37 656.22 a4.9 4.9 0 1 0 9.8 0 a4.9 4.9 0 1 0 -9.8 0zM583.93 631.72 a4.9 4.9 0 1 0 9.8 0 a4.9 4.9 0 1 0 -9.8 0zM753.68 43.72 a4.9 4.9 0 1 0 9.8 0 a4.9 4.9 0 1 0 -9.8 0zM796.12 68.22 a4.9 4.9 0 1 0 9.8 0 a4.9 4.9 0 1 0 -9.8 0zM796.12 117.22 a4.9 4.9 0 1 0 9.8 0 a4.9 4.9 0 1 0 -9.8 0zM753.68 141.72 a4.9 4.9 0 1 0 9.8 0 a4.9 4.9 0 1 0 -9.8 0zM711.24 117.22 a4.9 4.9 0 1 0 9.8 0 a4.9 4.9 0 1 0 -9.8 0zM711.24 68.22 a4.9 4.9 0 1 0 9.8 0 a4.9 4.9 0 1 0 -9.8 0zM753.68 484.72 a4.9 4.9 0 1 0 9.8 0 a4.9 4.9 0 1 0 -9.8 0zM796.12 509.22 a4.9 4.9 0 1 0 9.8 0 a4.9 4.9 0 1 0 -9.8 0zM796.12 558.22 a4.9 4.9 0 1 0 9.8 0 a4.9 4.9 0 1 0 -9.8 0zM753.68 582.72 a4.9 4.9 0 1 0 9.8 0 a4.9 4.9 0 1 0 -9.8 0zM753.68 631.72 a4.9 4.9 0 1 0 9.8 0 a4.9 4.9 0 1 0 -9.8 0zM711.24 656.22 a4.9 4.9 0 1 0 9.8 0 a4.9 4.9 0 1 0 -9.8 0zM838.55 484.72 a4.9 4.9 0 1 0 9.8 0 a4.9 4.9 0 1 0 -9.8 0zM880.99 509.22 a4.9 4.9 0 1 0 9.8 0 a4.9 4.9 0 1 0 -9.8 0zM880.99 558.22 a4.9 4.9 0 1 0 9.8 0 a4.9 4.9 0 1 0 -9.8 0zM838.55 582.72 a4.9 4.9 0 1 0 9.8 0 a4.9 4.9 0 1 0 -9.8 0zM1008.3 190.72 a4.9 4.9 0 1 0 9.8 0 a4.9 4.9 0 1 0 -9.8 0zM1050.73 215.22 a4.9 4.9 0 1 0 9.8 0 a4.9 4.9 0 1 0 -9.8 0zM1050.73 264.22 a4.9 4.9 0 1 0 9.8 0 a4.9 4.9 0 1 0 -9.8 0zM1008.3 288.72 a4.9 4.9 0 1 0 9.8 0 a4.9 4.9 0 1 0 -9.8 0zM965.86 264.22 a4.9 4.9 0 1 0 9.8 0 a4.9 4.9 0 1 0 -9.8 0zM965.86 215.22 a4.9 4.9 0 1 0 9.8 0 a4.9 4.9 0 1 0 -9.8 0zM1050.73 -29.78 a4.9 4.9 0 1 0 9.8 0 a4.9 4.9 0 1 0 -9.8 0zM1093.17 -5.28 a4.9 4.9 0 1 0 9.8 0 a4.9 4.9 0 1 0 -9.8 0zM1093.17 43.72 a4.9 4.9 0 1 0 9.8 0 a4.9 4.9 0 1 0 -9.8 0zM1050.73 68.22 a4.9 4.9 0 1 0 9.8 0 a4.9 4.9 0 1 0 -9.8 0zM1008.3 43.72 a4.9 4.9 0 1 0 9.8 0 a4.9 4.9 0 1 0 -9.8 0zM1008.3 -5.28 a4.9 4.9 0 1 0 9.8 0 a4.9 4.9 0 1 0 -9.8 0zM1093.17 484.72 a4.9 4.9 0 1 0 9.8 0 a4.9 4.9 0 1 0 -9.8 0zM1135.61 509.22 a4.9 4.9 0 1 0 9.8 0 a4.9 4.9 0 1 0 -9.8 0zM1135.61 558.22 a4.9 4.9 0 1 0 9.8 0 a4.9 4.9 0 1 0 -9.8 0zM1093.17 582.72 a4.9 4.9 0 1 0 9.8 0 a4.9 4.9 0 1 0 -9.8 0zM1050.73 558.22 a4.9 4.9 0 1 0 9.8 0 a4.9 4.9 0 1 0 -9.8 0zM1050.73 509.22 a4.9 4.9 0 1 0 9.8 0 a4.9 4.9 0 1 0 -9.8 0zM1093.17 631.72 a4.9 4.9 0 1 0 9.8 0 a4.9 4.9 0 1 0 -9.8 0zM1050.73 656.22 a4.9 4.9 0 1 0 9.8 0 a4.9 4.9 0 1 0 -9.8 0zM1008.3 631.72 a4.9 4.9 0 1 0 9.8 0 a4.9 4.9 0 1 0 -9.8 0zM1008.3 582.72 a4.9 4.9 0 1 0 9.8 0 a4.9 4.9 0 1 0 -9.8 0zM1178.04 190.72 a4.9 4.9 0 1 0 9.8 0 a4.9 4.9 0 1 0 -9.8 0zM1220.48 215.22 a4.9 4.9 0 1 0 9.8 0 a4.9 4.9 0 1 0 -9.8 0zM1220.48 264.22 a4.9 4.9 0 1 0 9.8 0 a4.9 4.9 0 1 0 -9.8 0zM1178.04 288.72 a4.9 4.9 0 1 0 9.8 0 a4.9 4.9 0 1 0 -9.8 0zM1135.61 264.22 a4.9 4.9 0 1 0 9.8 0 a4.9 4.9 0 1 0 -9.8 0zM1135.61 215.22 a4.9 4.9 0 1 0 9.8 0 a4.9 4.9 0 1 0 -9.8 0zM1178.04 337.72 a4.9 4.9 0 1 0 9.8 0 a4.9 4.9 0 1 0 -9.8 0zM1135.61 362.22 a4.9 4.9 0 1 0 9.8 0 a4.9 4.9 0 1 0 -9.8 0zM1093.17 337.72 a4.9 4.9 0 1 0 9.8 0 a4.9 4.9 0 1 0 -9.8 0zM1093.17 288.72 a4.9 4.9 0 1 0 9.8 0 a4.9 4.9 0 1 0 -9.8 0zM1220.48 362.22 a4.9 4.9 0 1 0 9.8 0 a4.9 4.9 0 1 0 -9.8 0zM1220.48 411.22 a4.9 4.9 0 1 0 9.8 0 a4.9 4.9 0 1 0 -9.8 0zM1178.04 435.72 a4.9 4.9 0 1 0 9.8 0 a4.9 4.9 0 1 0 -9.8 0zM1135.61 411.22 a4.9 4.9 0 1 0 9.8 0 a4.9 4.9 0 1 0 -9.8 0zM1262.92 337.72 a4.9 4.9 0 1 0 9.8 0 a4.9 4.9 0 1 0 -9.8 0zM1305.35 362.22 a4.9 4.9 0 1 0 9.8 0 a4.9 4.9 0 1 0 -9.8 0zM1305.35 411.22 a4.9 4.9 0 1 0 9.8 0 a4.9 4.9 0 1 0 -9.8 0zM1262.92 435.72 a4.9 4.9 0 1 0 9.8 0 a4.9 4.9 0 1 0 -9.8 0zM1432.66 43.72 a4.9 4.9 0 1 0 9.8 0 a4.9 4.9 0 1 0 -9.8 0zM1475.1 68.22 a4.9 4.9 0 1 0 9.8 0 a4.9 4.9 0 1 0 -9.8 0zM1475.1 117.22 a4.9 4.9 0 1 0 9.8 0 a4.9 4.9 0 1 0 -9.8 0zM1432.66 141.72 a4.9 4.9 0 1 0 9.8 0 a4.9 4.9 0 1 0 -9.8 0zM1390.23 117.22 a4.9 4.9 0 1 0 9.8 0 a4.9 4.9 0 1 0 -9.8 0zM1390.23 68.22 a4.9 4.9 0 1 0 9.8 0 a4.9 4.9 0 1 0 -9.8 0zM1432.66 484.72 a4.9 4.9 0 1 0 9.8 0 a4.9 4.9 0 1 0 -9.8 0zM1475.1 509.22 a4.9 4.9 0 1 0 9.8 0 a4.9 4.9 0 1 0 -9.8 0zM1475.1 558.22 a4.9 4.9 0 1 0 9.8 0 a4.9 4.9 0 1 0 -9.8 0zM1432.66 582.72 a4.9 4.9 0 1 0 9.8 0 a4.9 4.9 0 1 0 -9.8 0zM1390.23 558.22 a4.9 4.9 0 1 0 9.8 0 a4.9 4.9 0 1 0 -9.8 0zM1390.23 509.22 a4.9 4.9 0 1 0 9.8 0 a4.9 4.9 0 1 0 -9.8 0z" fill="url(&quot;#SvgjsLinearGradient2303&quot;)"></path><path d="M17.43 184.81L36.48 195.81L36.48 217.81L17.43 228.81L-1.62 217.81L-1.62 195.81zM17.43 382.81L36.48 393.81L36.48 415.81L17.43 426.81L-1.62 415.81L-1.62 393.81zM36.48 547.81L55.54 558.81L55.54 580.81L36.48 591.81L17.43 580.81L17.43 558.81zM74.59 85.81L93.64 96.81L93.64 118.81L74.59 129.81L55.54 118.81L55.54 96.81zM74.59 151.81L93.64 162.81L93.64 184.81L74.59 195.81L55.54 184.81L55.54 162.81zM74.59 349.81L93.64 360.81L93.64 382.81L74.59 393.81L55.54 382.81L55.54 360.81zM74.59 415.81L93.64 426.81L93.64 448.81L74.59 459.81L55.54 448.81L55.54 426.81zM55.54 448.81L74.59 459.81L74.59 481.81L55.54 492.81L36.48 481.81L36.48 459.81zM74.59 481.81L93.64 492.81L93.64 514.81L74.59 525.81L55.54 514.81L55.54 492.81zM74.59 547.81L93.64 558.81L93.64 580.81L74.59 591.81L55.54 580.81L55.54 558.81zM112.7 19.81L131.75 30.81L131.75 52.81L112.7 63.81L93.64 52.81L93.64 30.81zM112.7 85.81L131.75 96.81L131.75 118.81L112.7 129.81L93.64 118.81L93.64 96.81zM112.7 217.81L131.75 228.81L131.75 250.81L112.7 261.81L93.64 250.81L93.64 228.81zM112.7 481.81L131.75 492.81L131.75 514.81L112.7 525.81L93.64 514.81L93.64 492.81zM93.64 514.81L112.7 525.81L112.7 547.81L93.64 558.81L74.59 547.81L74.59 525.81zM112.7 547.81L131.75 558.81L131.75 580.81L112.7 591.81L93.64 580.81L93.64 558.81zM131.75 52.81L150.8 63.81L150.8 85.81L131.75 96.81L112.7 85.81L112.7 63.81zM150.8 151.81L169.85 162.81L169.85 184.81L150.8 195.81L131.75 184.81L131.75 162.81zM150.8 217.81L169.85 228.81L169.85 250.81L150.8 261.81L131.75 250.81L131.75 228.81zM150.8 283.81L169.85 294.81L169.85 316.81L150.8 327.81L131.75 316.81L131.75 294.81zM131.75 316.81L150.8 327.81L150.8 349.81L131.75 360.81L112.7 349.81L112.7 327.81zM150.8 481.81L169.85 492.81L169.85 514.81L150.8 525.81L131.75 514.81L131.75 492.81zM131.75 514.81L150.8 525.81L150.8 547.81L131.75 558.81L112.7 547.81L112.7 525.81zM188.91 19.81L207.96 30.81L207.96 52.81L188.91 63.81L169.85 52.81L169.85 30.81zM188.91 283.81L207.96 294.81L207.96 316.81L188.91 327.81L169.85 316.81L169.85 294.81zM188.91 349.81L207.96 360.81L207.96 382.81L188.91 393.81L169.85 382.81L169.85 360.81zM169.85 382.81L188.91 393.81L188.91 415.81L169.85 426.81L150.8 415.81L150.8 393.81zM188.91 415.81L207.96 426.81L207.96 448.81L188.91 459.81L169.85 448.81L169.85 426.81zM207.96 118.81L227.01 129.81L227.01 151.81L207.96 162.81L188.91 151.81L188.91 129.81zM207.96 250.81L227.01 261.81L227.01 283.81L207.96 294.81L188.91 283.81L188.91 261.81zM227.01 283.81L246.07 294.81L246.07 316.81L227.01 327.81L207.96 316.81L207.96 294.81zM207.96 382.81L227.01 393.81L227.01 415.81L207.96 426.81L188.91 415.81L188.91 393.81zM207.96 448.81L227.01 459.81L227.01 481.81L207.96 492.81L188.91 481.81L188.91 459.81zM246.07 52.81L265.12 63.81L265.12 85.81L246.07 96.81L227.01 85.81L227.01 63.81zM265.12 151.81L284.17 162.81L284.17 184.81L265.12 195.81L246.07 184.81L246.07 162.81zM265.12 217.81L284.17 228.81L284.17 250.81L265.12 261.81L246.07 250.81L246.07 228.81zM246.07 382.81L265.12 393.81L265.12 415.81L246.07 426.81L227.01 415.81L227.01 393.81zM265.12 547.81L284.17 558.81L284.17 580.81L265.12 591.81L246.07 580.81L246.07 558.81zM303.23 19.81L322.28 30.81L322.28 52.81L303.23 63.81L284.17 52.81L284.17 30.81zM303.23 151.81L322.28 162.81L322.28 184.81L303.23 195.81L284.17 184.81L284.17 162.81zM303.23 415.81L322.28 426.81L322.28 448.81L303.23 459.81L284.17 448.81L284.17 426.81zM284.17 514.81L303.23 525.81L303.23 547.81L284.17 558.81L265.12 547.81L265.12 525.81zM303.23 547.81L322.28 558.81L322.28 580.81L303.23 591.81L284.17 580.81L284.17 558.81zM341.33 19.81L360.39 30.81L360.39 52.81L341.33 63.81L322.28 52.81L322.28 30.81zM322.28 118.81L341.33 129.81L341.33 151.81L322.28 162.81L303.23 151.81L303.23 129.81zM322.28 184.81L341.33 195.81L341.33 217.81L322.28 228.81L303.23 217.81L303.23 195.81zM341.33 217.81L360.39 228.81L360.39 250.81L341.33 261.81L322.28 250.81L322.28 228.81zM322.28 250.81L341.33 261.81L341.33 283.81L322.28 294.81L303.23 283.81L303.23 261.81zM341.33 283.81L360.39 294.81L360.39 316.81L341.33 327.81L322.28 316.81L322.28 294.81zM322.28 316.81L341.33 327.81L341.33 349.81L322.28 360.81L303.23 349.81L303.23 327.81zM322.28 448.81L341.33 459.81L341.33 481.81L322.28 492.81L303.23 481.81L303.23 459.81zM322.28 514.81L341.33 525.81L341.33 547.81L322.28 558.81L303.23 547.81L303.23 525.81zM341.33 547.81L360.39 558.81L360.39 580.81L341.33 591.81L322.28 580.81L322.28 558.81zM360.39 -13.19L379.44 -2.19L379.44 19.81L360.39 30.81L341.33 19.81L341.33 -2.19zM360.39 118.81L379.44 129.81L379.44 151.81L360.39 162.81L341.33 151.81L341.33 129.81zM379.44 151.81L398.49 162.81L398.49 184.81L379.44 195.81L360.39 184.81L360.39 162.81zM360.39 184.81L379.44 195.81L379.44 217.81L360.39 228.81L341.33 217.81L341.33 195.81zM379.44 217.81L398.49 228.81L398.49 250.81L379.44 261.81L360.39 250.81L360.39 228.81zM360.39 316.81L379.44 327.81L379.44 349.81L360.39 360.81L341.33 349.81L341.33 327.81zM379.44 481.81L398.49 492.81L398.49 514.81L379.44 525.81L360.39 514.81L360.39 492.81zM417.55 151.81L436.6 162.81L436.6 184.81L417.55 195.81L398.49 184.81L398.49 162.81zM417.55 283.81L436.6 294.81L436.6 316.81L417.55 327.81L398.49 316.81L398.49 294.81zM398.49 382.81L417.55 393.81L417.55 415.81L398.49 426.81L379.44 415.81L379.44 393.81zM398.49 514.81L417.55 525.81L417.55 547.81L398.49 558.81L379.44 547.81L379.44 525.81zM436.6 -13.19L455.65 -2.19L455.65 19.81L436.6 30.81L417.55 19.81L417.55 -2.19zM436.6 118.81L455.65 129.81L455.65 151.81L436.6 162.81L417.55 151.81L417.55 129.81zM455.65 283.81L474.7 294.81L474.7 316.81L455.65 327.81L436.6 316.81L436.6 294.81zM455.65 349.81L474.7 360.81L474.7 382.81L455.65 393.81L436.6 382.81L436.6 360.81zM436.6 382.81L455.65 393.81L455.65 415.81L436.6 426.81L417.55 415.81L417.55 393.81zM455.65 415.81L474.7 426.81L474.7 448.81L455.65 459.81L436.6 448.81L436.6 426.81zM455.65 481.81L474.7 492.81L474.7 514.81L455.65 525.81L436.6 514.81L436.6 492.81zM436.6 514.81L455.65 525.81L455.65 547.81L436.6 558.81L417.55 547.81L417.55 525.81zM493.76 19.81L512.81 30.81L512.81 52.81L493.76 63.81L474.7 52.81L474.7 30.81zM474.7 52.81L493.76 63.81L493.76 85.81L474.7 96.81L455.65 85.81L455.65 63.81zM474.7 316.81L493.76 327.81L493.76 349.81L474.7 360.81L455.65 349.81L455.65 327.81zM474.7 382.81L493.76 393.81L493.76 415.81L474.7 426.81L455.65 415.81L455.65 393.81zM493.76 481.81L512.81 492.81L512.81 514.81L493.76 525.81L474.7 514.81L474.7 492.81zM493.76 547.81L512.81 558.81L512.81 580.81L493.76 591.81L474.7 580.81L474.7 558.81zM531.86 19.81L550.92 30.81L550.92 52.81L531.86 63.81L512.81 52.81L512.81 30.81zM531.86 217.81L550.92 228.81L550.92 250.81L531.86 261.81L512.81 250.81L512.81 228.81zM512.81 250.81L531.86 261.81L531.86 283.81L512.81 294.81L493.76 283.81L493.76 261.81zM512.81 316.81L531.86 327.81L531.86 349.81L512.81 360.81L493.76 349.81L493.76 327.81zM512.81 448.81L531.86 459.81L531.86 481.81L512.81 492.81L493.76 481.81L493.76 459.81zM512.81 514.81L531.86 525.81L531.86 547.81L512.81 558.81L493.76 547.81L493.76 525.81zM550.92 52.81L569.97 63.81L569.97 85.81L550.92 96.81L531.86 85.81L531.86 63.81zM550.92 118.81L569.97 129.81L569.97 151.81L550.92 162.81L531.86 151.81L531.86 129.81zM550.92 184.81L569.97 195.81L569.97 217.81L550.92 228.81L531.86 217.81L531.86 195.81zM569.97 283.81L589.02 294.81L589.02 316.81L569.97 327.81L550.92 316.81L550.92 294.81zM569.97 349.81L589.02 360.81L589.02 382.81L569.97 393.81L550.92 382.81L550.92 360.81zM550.92 382.81L569.97 393.81L569.97 415.81L550.92 426.81L531.86 415.81L531.86 393.81zM589.02 -13.19L608.08 -2.19L608.08 19.81L589.02 30.81L569.97 19.81L569.97 -2.19zM589.02 52.81L608.08 63.81L608.08 85.81L589.02 96.81L569.97 85.81L569.97 63.81zM589.02 184.81L608.08 195.81L608.08 217.81L589.02 228.81L569.97 217.81L569.97 195.81zM608.08 217.81L627.13 228.81L627.13 250.81L608.08 261.81L589.02 250.81L589.02 228.81zM589.02 316.81L608.08 327.81L608.08 349.81L589.02 360.81L569.97 349.81L569.97 327.81zM589.02 382.81L608.08 393.81L608.08 415.81L589.02 426.81L569.97 415.81L569.97 393.81zM608.08 547.81L627.13 558.81L627.13 580.81L608.08 591.81L589.02 580.81L589.02 558.81zM627.13 52.81L646.18 63.81L646.18 85.81L627.13 96.81L608.08 85.81L608.08 63.81zM646.18 349.81L665.24 360.81L665.24 382.81L646.18 393.81L627.13 382.81L627.13 360.81zM627.13 382.81L646.18 393.81L646.18 415.81L627.13 426.81L608.08 415.81L608.08 393.81zM627.13 514.81L646.18 525.81L646.18 547.81L627.13 558.81L608.08 547.81L608.08 525.81zM684.29 85.81L703.34 96.81L703.34 118.81L684.29 129.81L665.24 118.81L665.24 96.81zM665.24 118.81L684.29 129.81L684.29 151.81L665.24 162.81L646.18 151.81L646.18 129.81zM665.24 514.81L684.29 525.81L684.29 547.81L665.24 558.81L646.18 547.81L646.18 525.81zM703.34 184.81L722.39 195.81L722.39 217.81L703.34 228.81L684.29 217.81L684.29 195.81zM703.34 250.81L722.39 261.81L722.39 283.81L703.34 294.81L684.29 283.81L684.29 261.81zM703.34 316.81L722.39 327.81L722.39 349.81L703.34 360.81L684.29 349.81L684.29 327.81zM722.39 349.81L741.45 360.81L741.45 382.81L722.39 393.81L703.34 382.81L703.34 360.81zM722.39 481.81L741.45 492.81L741.45 514.81L722.39 525.81L703.34 514.81L703.34 492.81zM722.39 547.81L741.45 558.81L741.45 580.81L722.39 591.81L703.34 580.81L703.34 558.81zM760.5 85.81L779.55 96.81L779.55 118.81L760.5 129.81L741.45 118.81L741.45 96.81zM741.45 118.81L760.5 129.81L760.5 151.81L741.45 162.81L722.39 151.81L722.39 129.81zM741.45 184.81L760.5 195.81L760.5 217.81L741.45 228.81L722.39 217.81L722.39 195.81zM760.5 217.81L779.55 228.81L779.55 250.81L760.5 261.81L741.45 250.81L741.45 228.81zM741.45 250.81L760.5 261.81L760.5 283.81L741.45 294.81L722.39 283.81L722.39 261.81zM741.45 448.81L760.5 459.81L760.5 481.81L741.45 492.81L722.39 481.81L722.39 459.81zM779.55 52.81L798.61 63.81L798.61 85.81L779.55 96.81L760.5 85.81L760.5 63.81zM798.61 85.81L817.66 96.81L817.66 118.81L798.61 129.81L779.55 118.81L779.55 96.81zM798.61 217.81L817.66 228.81L817.66 250.81L798.61 261.81L779.55 250.81L779.55 228.81zM779.55 250.81L798.61 261.81L798.61 283.81L779.55 294.81L760.5 283.81L760.5 261.81zM779.55 316.81L798.61 327.81L798.61 349.81L779.55 360.81L760.5 349.81L760.5 327.81zM779.55 382.81L798.61 393.81L798.61 415.81L779.55 426.81L760.5 415.81L760.5 393.81zM798.61 415.81L817.66 426.81L817.66 448.81L798.61 459.81L779.55 448.81L779.55 426.81zM798.61 481.81L817.66 492.81L817.66 514.81L798.61 525.81L779.55 514.81L779.55 492.81zM817.66 52.81L836.71 63.81L836.71 85.81L817.66 96.81L798.61 85.81L798.61 63.81zM817.66 184.81L836.71 195.81L836.71 217.81L817.66 228.81L798.61 217.81L798.61 195.81zM836.71 283.81L855.77 294.81L855.77 316.81L836.71 327.81L817.66 316.81L817.66 294.81zM817.66 448.81L836.71 459.81L836.71 481.81L817.66 492.81L798.61 481.81L798.61 459.81zM836.71 481.81L855.77 492.81L855.77 514.81L836.71 525.81L817.66 514.81L817.66 492.81zM817.66 514.81L836.71 525.81L836.71 547.81L817.66 558.81L798.61 547.81L798.61 525.81zM836.71 547.81L855.77 558.81L855.77 580.81L836.71 591.81L817.66 580.81L817.66 558.81zM855.77 52.81L874.82 63.81L874.82 85.81L855.77 96.81L836.71 85.81L836.71 63.81zM874.82 151.81L893.87 162.81L893.87 184.81L874.82 195.81L855.77 184.81L855.77 162.81zM874.82 283.81L893.87 294.81L893.87 316.81L874.82 327.81L855.77 316.81L855.77 294.81zM912.93 85.81L931.98 96.81L931.98 118.81L912.93 129.81L893.87 118.81L893.87 96.81zM893.87 118.81L912.93 129.81L912.93 151.81L893.87 162.81L874.82 151.81L874.82 129.81zM893.87 184.81L912.93 195.81L912.93 217.81L893.87 228.81L874.82 217.81L874.82 195.81zM912.93 217.81L931.98 228.81L931.98 250.81L912.93 261.81L893.87 250.81L893.87 228.81zM912.93 283.81L931.98 294.81L931.98 316.81L912.93 327.81L893.87 316.81L893.87 294.81zM912.93 349.81L931.98 360.81L931.98 382.81L912.93 393.81L893.87 382.81L893.87 360.81zM893.87 514.81L912.93 525.81L912.93 547.81L893.87 558.81L874.82 547.81L874.82 525.81zM912.93 547.81L931.98 558.81L931.98 580.81L912.93 591.81L893.87 580.81L893.87 558.81zM951.03 151.81L970.08 162.81L970.08 184.81L951.03 195.81L931.98 184.81L931.98 162.81zM951.03 217.81L970.08 228.81L970.08 250.81L951.03 261.81L931.98 250.81L931.98 228.81zM931.98 316.81L951.03 327.81L951.03 349.81L931.98 360.81L912.93 349.81L912.93 327.81zM951.03 415.81L970.08 426.81L970.08 448.81L951.03 459.81L931.98 448.81L931.98 426.81zM989.14 151.81L1008.19 162.81L1008.19 184.81L989.14 195.81L970.08 184.81L970.08 162.81zM970.08 184.81L989.14 195.81L989.14 217.81L970.08 228.81L951.03 217.81L951.03 195.81zM970.08 316.81L989.14 327.81L989.14 349.81L970.08 360.81L951.03 349.81L951.03 327.81zM989.14 349.81L1008.19 360.81L1008.19 382.81L989.14 393.81L970.08 382.81L970.08 360.81zM989.14 481.81L1008.19 492.81L1008.19 514.81L989.14 525.81L970.08 514.81L970.08 492.81zM970.08 514.81L989.14 525.81L989.14 547.81L970.08 558.81L951.03 547.81L951.03 525.81zM989.14 547.81L1008.19 558.81L1008.19 580.81L989.14 591.81L970.08 580.81L970.08 558.81zM1008.19 -13.19L1027.24 -2.19L1027.24 19.81L1008.19 30.81L989.14 19.81L989.14 -2.19zM1027.24 19.81L1046.3 30.81L1046.3 52.81L1027.24 63.81L1008.19 52.81L1008.19 30.81zM1027.24 283.81L1046.3 294.81L1046.3 316.81L1027.24 327.81L1008.19 316.81L1008.19 294.81zM1027.24 415.81L1046.3 426.81L1046.3 448.81L1027.24 459.81L1008.19 448.81L1008.19 426.81zM1027.24 481.81L1046.3 492.81L1046.3 514.81L1027.24 525.81L1008.19 514.81L1008.19 492.81zM1065.35 19.81L1084.4 30.81L1084.4 52.81L1065.35 63.81L1046.3 52.81L1046.3 30.81zM1046.3 52.81L1065.35 63.81L1065.35 85.81L1046.3 96.81L1027.24 85.81L1027.24 63.81zM1065.35 85.81L1084.4 96.81L1084.4 118.81L1065.35 129.81L1046.3 118.81L1046.3 96.81zM1046.3 118.81L1065.35 129.81L1065.35 151.81L1046.3 162.81L1027.24 151.81L1027.24 129.81zM1065.35 217.81L1084.4 228.81L1084.4 250.81L1065.35 261.81L1046.3 250.81L1046.3 228.81zM1046.3 250.81L1065.35 261.81L1065.35 283.81L1046.3 294.81L1027.24 283.81L1027.24 261.81zM1065.35 283.81L1084.4 294.81L1084.4 316.81L1065.35 327.81L1046.3 316.81L1046.3 294.81zM1065.35 349.81L1084.4 360.81L1084.4 382.81L1065.35 393.81L1046.3 382.81L1046.3 360.81zM1046.3 514.81L1065.35 525.81L1065.35 547.81L1046.3 558.81L1027.24 547.81L1027.24 525.81zM1065.35 547.81L1084.4 558.81L1084.4 580.81L1065.35 591.81L1046.3 580.81L1046.3 558.81zM1084.4 118.81L1103.46 129.81L1103.46 151.81L1084.4 162.81L1065.35 151.81L1065.35 129.81zM1084.4 184.81L1103.46 195.81L1103.46 217.81L1084.4 228.81L1065.35 217.81L1065.35 195.81zM1141.56 151.81L1160.62 162.81L1160.62 184.81L1141.56 195.81L1122.51 184.81L1122.51 162.81zM1122.51 184.81L1141.56 195.81L1141.56 217.81L1122.51 228.81L1103.46 217.81L1103.46 195.81zM1122.51 316.81L1141.56 327.81L1141.56 349.81L1122.51 360.81L1103.46 349.81L1103.46 327.81zM1122.51 448.81L1141.56 459.81L1141.56 481.81L1122.51 492.81L1103.46 481.81L1103.46 459.81zM1141.56 481.81L1160.62 492.81L1160.62 514.81L1141.56 525.81L1122.51 514.81L1122.51 492.81zM1141.56 547.81L1160.62 558.81L1160.62 580.81L1141.56 591.81L1122.51 580.81L1122.51 558.81zM1179.67 217.81L1198.72 228.81L1198.72 250.81L1179.67 261.81L1160.62 250.81L1160.62 228.81zM1179.67 283.81L1198.72 294.81L1198.72 316.81L1179.67 327.81L1160.62 316.81L1160.62 294.81zM1179.67 415.81L1198.72 426.81L1198.72 448.81L1179.67 459.81L1160.62 448.81L1160.62 426.81zM1198.72 -13.19L1217.78 -2.19L1217.78 19.81L1198.72 30.81L1179.67 19.81L1179.67 -2.19zM1217.78 85.81L1236.83 96.81L1236.83 118.81L1217.78 129.81L1198.72 118.81L1198.72 96.81zM1217.78 217.81L1236.83 228.81L1236.83 250.81L1217.78 261.81L1198.72 250.81L1198.72 228.81zM1198.72 250.81L1217.78 261.81L1217.78 283.81L1198.72 294.81L1179.67 283.81L1179.67 261.81zM1198.72 382.81L1217.78 393.81L1217.78 415.81L1198.72 426.81L1179.67 415.81L1179.67 393.81zM1198.72 514.81L1217.78 525.81L1217.78 547.81L1198.72 558.81L1179.67 547.81L1179.67 525.81zM1236.83 118.81L1255.88 129.81L1255.88 151.81L1236.83 162.81L1217.78 151.81L1217.78 129.81zM1236.83 184.81L1255.88 195.81L1255.88 217.81L1236.83 228.81L1217.78 217.81L1217.78 195.81zM1255.88 217.81L1274.93 228.81L1274.93 250.81L1255.88 261.81L1236.83 250.81L1236.83 228.81zM1255.88 283.81L1274.93 294.81L1274.93 316.81L1255.88 327.81L1236.83 316.81L1236.83 294.81zM1236.83 316.81L1255.88 327.81L1255.88 349.81L1236.83 360.81L1217.78 349.81L1217.78 327.81zM1255.88 415.81L1274.93 426.81L1274.93 448.81L1255.88 459.81L1236.83 448.81L1236.83 426.81zM1255.88 547.81L1274.93 558.81L1274.93 580.81L1255.88 591.81L1236.83 580.81L1236.83 558.81zM1293.99 19.81L1313.04 30.81L1313.04 52.81L1293.99 63.81L1274.93 52.81L1274.93 30.81zM1293.99 151.81L1313.04 162.81L1313.04 184.81L1293.99 195.81L1274.93 184.81L1274.93 162.81zM1274.93 250.81L1293.99 261.81L1293.99 283.81L1274.93 294.81L1255.88 283.81L1255.88 261.81zM1293.99 283.81L1313.04 294.81L1313.04 316.81L1293.99 327.81L1274.93 316.81L1274.93 294.81zM1274.93 316.81L1293.99 327.81L1293.99 349.81L1274.93 360.81L1255.88 349.81L1255.88 327.81zM1293.99 349.81L1313.04 360.81L1313.04 382.81L1293.99 393.81L1274.93 382.81L1274.93 360.81zM1293.99 481.81L1313.04 492.81L1313.04 514.81L1293.99 525.81L1274.93 514.81L1274.93 492.81zM1274.93 514.81L1293.99 525.81L1293.99 547.81L1274.93 558.81L1255.88 547.81L1255.88 525.81zM1293.99 547.81L1313.04 558.81L1313.04 580.81L1293.99 591.81L1274.93 580.81L1274.93 558.81zM1332.09 85.81L1351.15 96.81L1351.15 118.81L1332.09 129.81L1313.04 118.81L1313.04 96.81zM1332.09 283.81L1351.15 294.81L1351.15 316.81L1332.09 327.81L1313.04 316.81L1313.04 294.81zM1332.09 415.81L1351.15 426.81L1351.15 448.81L1332.09 459.81L1313.04 448.81L1313.04 426.81zM1313.04 448.81L1332.09 459.81L1332.09 481.81L1313.04 492.81L1293.99 481.81L1293.99 459.81zM1332.09 481.81L1351.15 492.81L1351.15 514.81L1332.09 525.81L1313.04 514.81L1313.04 492.81zM1332.09 547.81L1351.15 558.81L1351.15 580.81L1332.09 591.81L1313.04 580.81L1313.04 558.81zM1351.15 -13.19L1370.2 -2.19L1370.2 19.81L1351.15 30.81L1332.09 19.81L1332.09 -2.19zM1351.15 52.81L1370.2 63.81L1370.2 85.81L1351.15 96.81L1332.09 85.81L1332.09 63.81zM1370.2 283.81L1389.25 294.81L1389.25 316.81L1370.2 327.81L1351.15 316.81L1351.15 294.81zM1351.15 448.81L1370.2 459.81L1370.2 481.81L1351.15 492.81L1332.09 481.81L1332.09 459.81zM1389.25 -13.19L1408.31 -2.19L1408.31 19.81L1389.25 30.81L1370.2 19.81L1370.2 -2.19zM1389.25 52.81L1408.31 63.81L1408.31 85.81L1389.25 96.81L1370.2 85.81L1370.2 63.81zM1389.25 118.81L1408.31 129.81L1408.31 151.81L1389.25 162.81L1370.2 151.81L1370.2 129.81zM1389.25 448.81L1408.31 459.81L1408.31 481.81L1389.25 492.81L1370.2 481.81L1370.2 459.81zM1408.31 481.81L1427.36 492.81L1427.36 514.81L1408.31 525.81L1389.25 514.81L1389.25 492.81zM1408.31 547.81L1427.36 558.81L1427.36 580.81L1408.31 591.81L1389.25 580.81L1389.25 558.81zM1427.36 -13.19L1446.41 -2.19L1446.41 19.81L1427.36 30.81L1408.31 19.81L1408.31 -2.19zM1446.41 19.81L1465.47 30.81L1465.47 52.81L1446.41 63.81L1427.36 52.81L1427.36 30.81zM1427.36 382.81L1446.41 393.81L1446.41 415.81L1427.36 426.81L1408.31 415.81L1408.31 393.81zM1446.41 481.81L1465.47 492.81L1465.47 514.81L1446.41 525.81L1427.36 514.81L1427.36 492.81zM1427.36 514.81L1446.41 525.81L1446.41 547.81L1427.36 558.81L1408.31 547.81L1408.31 525.81z" stroke="url(&quot;#SvgjsLinearGradient2304&quot;)" stroke-width="2"></path></g><defs><mask id="SvgjsMask2302"><rect width="1440" height="560" fill="#ffffff"></rect></mask><linearGradient x1="220.03199999999998" y1="-220.02399999999997" x2="1219.9679999999998" y2="780.024" gradientUnits="userSpaceOnUse" id="SvgjsLinearGradient2303"><stop stop-color="rgba(158, 0, 129, 1)" offset="0"></stop><stop stop-color="rgba(46, 3, 93, 1)" offset="1"></stop></linearGradient><linearGradient x1="220.03199999999998" y1="-220.02399999999997" x2="1219.9679999999998" y2="780.024" gradientUnits="userSpaceOnUse" id="SvgjsLinearGradient2304"><stop stop-color="#0e2a47" offset="0"></stop><stop stop-color="rgba(0, 104, 239, 1)" offset="1"></stop></linearGradient></defs></svg>