<svg xmlns="http://www.w3.org/2000/svg" version="1.1" xmlns:xlink="http://www.w3.org/1999/xlink" xmlns:svgjs="http://svgjs.dev/svgjs" width="1440" height="560" preserveAspectRatio="none" viewBox="0 0 1440 560"><g mask="url(&quot;#SvgjsMask1038&quot;)" fill="none"><rect width="1440" height="560" x="0" y="0" fill="url(&quot;#SvgjsLinearGradient1039&quot;)"></rect><path d="M-100.71 351.17L-100.71 351.17" stroke="#132e65" stroke-width="1.5"></path><path d="M-100.71 351.17L60.87 377.35" stroke="#132e65" stroke-width="1.5"></path><path d="M-100.71 351.17L-43.83 532.65" stroke="#132e65" stroke-width="1.5"></path><path d="M-100.71 351.17L46.77 546.12" stroke="#132e65" stroke-width="1.5"></path><path d="M-100.71 351.17L209.78 404.02" stroke="#132e65" stroke-width="1.5"></path><path d="M-100.71 351.17L-82.61 704.91" stroke="#132e65" stroke-width="1.5"></path><path d="M-100.71 351.17L232.16 510.43" stroke="#132e65" stroke-width="1.5"></path><path d="M-43.83 532.65L-43.83 532.65" stroke="#132e65" stroke-width="1.5"></path><path d="M-43.83 532.65L46.77 546.12" stroke="#132e65" stroke-width="1.5"></path><path d="M-43.83 532.65L-82.61 704.91" stroke="#132e65" stroke-width="1.5"></path><path d="M-82.61 704.91L-82.61 704.91" stroke="#132e65" stroke-width="1.5"></path><path d="M-82.61 704.91L92.29 703.92" stroke="#132e65" stroke-width="1.5"></path><path d="M-82.61 704.91L46.77 546.12" stroke="#132e65" stroke-width="1.5"></path><path d="M-82.61 704.91L230.18 643.73" stroke="#132e65" stroke-width="1.5"></path><path d="M-82.61 704.91L60.87 377.35" stroke="#132e65" stroke-width="1.5"></path><path d="M60.87 377.35L60.87 377.35" stroke="#132e65" stroke-width="1.5"></path><path d="M60.87 377.35L209.78 404.02" stroke="#132e65" stroke-width="1.5"></path><path d="M60.87 377.35L46.77 546.12" stroke="#132e65" stroke-width="1.5"></path><path d="M46.77 546.12L46.77 546.12" stroke="#132e65" stroke-width="1.5"></path><path d="M46.77 546.12L92.29 703.92" stroke="#132e65" stroke-width="1.5"></path><path d="M46.77 546.12L232.16 510.43" stroke="#132e65" stroke-width="1.5"></path><path d="M46.77 546.12L230.18 643.73" stroke="#132e65" stroke-width="1.5"></path><path d="M92.29 703.92L92.29 703.92" stroke="#132e65" stroke-width="1.5"></path><path d="M92.29 703.92L230.18 643.73" stroke="#132e65" stroke-width="1.5"></path><path d="M92.29 703.92L-43.83 532.65" stroke="#132e65" stroke-width="1.5"></path><path d="M92.29 703.92L232.16 510.43" stroke="#132e65" stroke-width="1.5"></path><path d="M92.29 703.92L408.62 664.69" stroke="#132e65" stroke-width="1.5"></path><path d="M209.78 404.02L209.78 404.02" stroke="#132e65" stroke-width="1.5"></path><path d="M209.78 404.02L232.16 510.43" stroke="#132e65" stroke-width="1.5"></path><path d="M209.78 404.02L377.48 352.54" stroke="#132e65" stroke-width="1.5"></path><path d="M209.78 404.02L46.77 546.12" stroke="#132e65" stroke-width="1.5"></path><path d="M232.16 510.43L232.16 510.43" stroke="#132e65" stroke-width="1.5"></path><path d="M232.16 510.43L230.18 643.73" stroke="#132e65" stroke-width="1.5"></path><path d="M232.16 510.43L399.2 529.37" stroke="#132e65" stroke-width="1.5"></path><path d="M230.18 643.73L230.18 643.73" stroke="#132e65" stroke-width="1.5"></path><path d="M230.18 643.73L408.62 664.69" stroke="#132e65" stroke-width="1.5"></path><path d="M230.18 643.73L399.2 529.37" stroke="#132e65" stroke-width="1.5"></path><path d="M377.48 352.54L377.48 352.54" stroke="#132e65" stroke-width="1.5"></path><path d="M377.48 352.54L399.2 529.37" stroke="#132e65" stroke-width="1.5"></path><path d="M377.48 352.54L497.77 488.71" stroke="#132e65" stroke-width="1.5"></path><path d="M377.48 352.54L232.16 510.43" stroke="#132e65" stroke-width="1.5"></path><path d="M377.48 352.54L408.62 664.69" stroke="#132e65" stroke-width="1.5"></path><path d="M377.48 352.54L60.87 377.35" stroke="#132e65" stroke-width="1.5"></path><path d="M399.2 529.37L399.2 529.37" stroke="#132e65" stroke-width="1.5"></path><path d="M399.2 529.37L497.77 488.71" stroke="#132e65" stroke-width="1.5"></path><path d="M399.2 529.37L408.62 664.69" stroke="#132e65" stroke-width="1.5"></path><path d="M408.62 664.69L408.62 664.69" stroke="#132e65" stroke-width="1.5"></path><path d="M408.62 664.69L538.01 691.79" stroke="#132e65" stroke-width="1.5"></path><path d="M408.62 664.69L497.77 488.71" stroke="#132e65" stroke-width="1.5"></path><path d="M408.62 664.69L232.16 510.43" stroke="#132e65" stroke-width="1.5"></path><path d="M497.77 488.71L497.77 488.71" stroke="#132e65" stroke-width="1.5"></path><path d="M497.77 488.71L683.57 513.5" stroke="#132e65" stroke-width="1.5"></path><path d="M538.01 691.79L538.01 691.79" stroke="#132e65" stroke-width="1.5"></path><path d="M538.01 691.79L646.34 689.21" stroke="#132e65" stroke-width="1.5"></path><path d="M538.01 691.79L497.77 488.71" stroke="#132e65" stroke-width="1.5"></path><path d="M683.57 513.5L683.57 513.5" stroke="#132e65" stroke-width="1.5"></path><path d="M683.57 513.5L810.13 525.06" stroke="#132e65" stroke-width="1.5"></path><path d="M683.57 513.5L789.7 409.76" stroke="#132e65" stroke-width="1.5"></path><path d="M683.57 513.5L646.34 689.21" stroke="#132e65" stroke-width="1.5"></path><path d="M646.34 689.21L646.34 689.21" stroke="#132e65" stroke-width="1.5"></path><path d="M646.34 689.21L853.57 702.79" stroke="#132e65" stroke-width="1.5"></path><path d="M826.24 196.85L826.24 196.85" stroke="#132e65" stroke-width="1.5"></path><path d="M826.24 196.85L1010.7 246.83" stroke="#132e65" stroke-width="1.5"></path><path d="M789.7 409.76L789.7 409.76" stroke="#132e65" stroke-width="1.5"></path><path d="M789.7 409.76L810.13 525.06" stroke="#132e65" stroke-width="1.5"></path><path d="M810.13 525.06L810.13 525.06" stroke="#132e65" stroke-width="1.5"></path><path d="M810.13 525.06L946.4 520.42" stroke="#132e65" stroke-width="1.5"></path><path d="M853.57 702.79L853.57 702.79" stroke="#132e65" stroke-width="1.5"></path><path d="M853.57 702.79L959.95 684.31" stroke="#132e65" stroke-width="1.5"></path><path d="M853.57 702.79L810.13 525.06" stroke="#132e65" stroke-width="1.5"></path><path d="M853.57 702.79L946.4 520.42" stroke="#132e65" stroke-width="1.5"></path><path d="M996.38 63.68L996.38 63.68" stroke="#132e65" stroke-width="1.5"></path><path d="M996.38 63.68L1150.28 59.78" stroke="#132e65" stroke-width="1.5"></path><path d="M996.38 63.68L1010.7 246.83" stroke="#132e65" stroke-width="1.5"></path><path d="M996.38 63.68L1102.46 249.57" stroke="#132e65" stroke-width="1.5"></path><path d="M996.38 63.68L826.24 196.85" stroke="#132e65" stroke-width="1.5"></path><path d="M1010.7 246.83L1010.7 246.83" stroke="#132e65" stroke-width="1.5"></path><path d="M1010.7 246.83L1102.46 249.57" stroke="#132e65" stroke-width="1.5"></path><path d="M1010.7 246.83L953.74 360.54" stroke="#132e65" stroke-width="1.5"></path><path d="M1010.7 246.83L1098.92 407.82" stroke="#132e65" stroke-width="1.5"></path><path d="M1010.7 246.83L1150.28 59.78" stroke="#132e65" stroke-width="1.5"></path><path d="M953.74 360.54L953.74 360.54" stroke="#132e65" stroke-width="1.5"></path><path d="M953.74 360.54L1098.92 407.82" stroke="#132e65" stroke-width="1.5"></path><path d="M946.4 520.42L946.4 520.42" stroke="#132e65" stroke-width="1.5"></path><path d="M946.4 520.42L1091.72 558.84" stroke="#132e65" stroke-width="1.5"></path><path d="M959.95 684.31L959.95 684.31" stroke="#132e65" stroke-width="1.5"></path><path d="M1155.19 -106.06L1155.19 -106.06" stroke="#132e65" stroke-width="1.5"></path><path d="M1155.19 -106.06L1272.5 -92.52" stroke="#132e65" stroke-width="1.5"></path><path d="M1155.19 -106.06L1150.28 59.78" stroke="#132e65" stroke-width="1.5"></path><path d="M1155.19 -106.06L1298.23 51.88" stroke="#132e65" stroke-width="1.5"></path><path d="M1150.28 59.78L1150.28 59.78" stroke="#132e65" stroke-width="1.5"></path><path d="M1150.28 59.78L1298.23 51.88" stroke="#132e65" stroke-width="1.5"></path><path d="M1150.28 59.78L1272.5 -92.52" stroke="#132e65" stroke-width="1.5"></path><path d="M1150.28 59.78L1102.46 249.57" stroke="#132e65" stroke-width="1.5"></path><path d="M1150.28 59.78L1264.12 235.64" stroke="#132e65" stroke-width="1.5"></path><path d="M1102.46 249.57L1102.46 249.57" stroke="#132e65" stroke-width="1.5"></path><path d="M1102.46 249.57L1098.92 407.82" stroke="#132e65" stroke-width="1.5"></path><path d="M1098.92 407.82L1098.92 407.82" stroke="#132e65" stroke-width="1.5"></path><path d="M1098.92 407.82L1091.72 558.84" stroke="#132e65" stroke-width="1.5"></path><path d="M1098.92 407.82L946.4 520.42" stroke="#132e65" stroke-width="1.5"></path><path d="M1091.72 558.84L1091.72 558.84" stroke="#132e65" stroke-width="1.5"></path><path d="M1091.72 558.84L1143.21 652.68" stroke="#132e65" stroke-width="1.5"></path><path d="M1143.21 652.68L1143.21 652.68" stroke="#132e65" stroke-width="1.5"></path><path d="M1143.21 652.68L1282.52 655.83" stroke="#132e65" stroke-width="1.5"></path><path d="M1143.21 652.68L1256.62 515.05" stroke="#132e65" stroke-width="1.5"></path><path d="M1143.21 652.68L959.95 684.31" stroke="#132e65" stroke-width="1.5"></path><path d="M1272.5 -92.52L1272.5 -92.52" stroke="#132e65" stroke-width="1.5"></path><path d="M1272.5 -92.52L1298.23 51.88" stroke="#132e65" stroke-width="1.5"></path><path d="M1272.5 -92.52L1450.73 -108.4" stroke="#132e65" stroke-width="1.5"></path><path d="M1272.5 -92.52L1406.55 38.48" stroke="#132e65" stroke-width="1.5"></path><path d="M1298.23 51.88L1298.23 51.88" stroke="#132e65" stroke-width="1.5"></path><path d="M1298.23 51.88L1406.55 38.48" stroke="#132e65" stroke-width="1.5"></path><path d="M1298.23 51.88L1264.12 235.64" stroke="#132e65" stroke-width="1.5"></path><path d="M1264.12 235.64L1264.12 235.64" stroke="#132e65" stroke-width="1.5"></path><path d="M1264.12 235.64L1392.03 255.66" stroke="#132e65" stroke-width="1.5"></path><path d="M1264.12 235.64L1102.46 249.57" stroke="#132e65" stroke-width="1.5"></path><path d="M1256.62 515.05L1256.62 515.05" stroke="#132e65" stroke-width="1.5"></path><path d="M1256.62 515.05L1282.52 655.83" stroke="#132e65" stroke-width="1.5"></path><path d="M1256.62 515.05L1091.72 558.84" stroke="#132e65" stroke-width="1.5"></path><path d="M1256.62 515.05L1098.92 407.82" stroke="#132e65" stroke-width="1.5"></path><path d="M1282.52 655.83L1282.52 655.83" stroke="#132e65" stroke-width="1.5"></path><path d="M1282.52 655.83L1397.63 683.52" stroke="#132e65" stroke-width="1.5"></path><path d="M1282.52 655.83L1091.72 558.84" stroke="#132e65" stroke-width="1.5"></path><path d="M1282.52 655.83L1556.39 520.27" stroke="#132e65" stroke-width="1.5"></path><path d="M1282.52 655.83L1098.92 407.82" stroke="#132e65" stroke-width="1.5"></path><path d="M1450.73 -108.4L1450.73 -108.4" stroke="#132e65" stroke-width="1.5"></path><path d="M1450.73 -108.4L1406.55 38.48" stroke="#132e65" stroke-width="1.5"></path><path d="M1450.73 -108.4L1610.95 -75.21" stroke="#132e65" stroke-width="1.5"></path><path d="M1450.73 -108.4L1560.24 62.04" stroke="#132e65" stroke-width="1.5"></path><path d="M1406.55 38.48L1406.55 38.48" stroke="#132e65" stroke-width="1.5"></path><path d="M1406.55 38.48L1560.24 62.04" stroke="#132e65" stroke-width="1.5"></path><path d="M1406.55 38.48L1392.03 255.66" stroke="#132e65" stroke-width="1.5"></path><path d="M1406.55 38.48L1610.95 -75.21" stroke="#132e65" stroke-width="1.5"></path><path d="M1392.03 255.66L1392.03 255.66" stroke="#132e65" stroke-width="1.5"></path><path d="M1392.03 255.66L1437.97 345.11" stroke="#132e65" stroke-width="1.5"></path><path d="M1392.03 255.66L1539.52 400.35" stroke="#132e65" stroke-width="1.5"></path><path d="M1392.03 255.66L1598.62 237.47" stroke="#132e65" stroke-width="1.5"></path><path d="M1437.97 345.11L1437.97 345.11" stroke="#132e65" stroke-width="1.5"></path><path d="M1437.97 345.11L1539.52 400.35" stroke="#132e65" stroke-width="1.5"></path><path d="M1437.97 345.11L1598.62 237.47" stroke="#132e65" stroke-width="1.5"></path><path d="M1437.97 345.11L1264.12 235.64" stroke="#132e65" stroke-width="1.5"></path><path d="M1437.97 345.11L1556.39 520.27" stroke="#132e65" stroke-width="1.5"></path><path d="M1437.97 345.11L1256.62 515.05" stroke="#132e65" stroke-width="1.5"></path><path d="M1397.63 683.52L1397.63 683.52" stroke="#132e65" stroke-width="1.5"></path><path d="M1397.63 683.52L1601.74 664.27" stroke="#132e65" stroke-width="1.5"></path><path d="M1397.63 683.52L1256.62 515.05" stroke="#132e65" stroke-width="1.5"></path><path d="M1397.63 683.52L1556.39 520.27" stroke="#132e65" stroke-width="1.5"></path><path d="M1610.95 -75.21L1610.95 -75.21" stroke="#132e65" stroke-width="1.5"></path><path d="M1610.95 -75.21L1560.24 62.04" stroke="#132e65" stroke-width="1.5"></path><path d="M1610.95 -75.21L1598.62 237.47" stroke="#132e65" stroke-width="1.5"></path><path d="M1610.95 -75.21L1298.23 51.88" stroke="#132e65" stroke-width="1.5"></path><path d="M1610.95 -75.21L1272.5 -92.52" stroke="#132e65" stroke-width="1.5"></path><path d="M1560.24 62.04L1560.24 62.04" stroke="#132e65" stroke-width="1.5"></path><path d="M1560.24 62.04L1598.62 237.47" stroke="#132e65" stroke-width="1.5"></path><path d="M1598.62 237.47L1598.62 237.47" stroke="#132e65" stroke-width="1.5"></path><path d="M1598.62 237.47L1539.52 400.35" stroke="#132e65" stroke-width="1.5"></path><path d="M1539.52 400.35L1539.52 400.35" stroke="#132e65" stroke-width="1.5"></path><path d="M1539.52 400.35L1556.39 520.27" stroke="#132e65" stroke-width="1.5"></path><path d="M1556.39 520.27L1556.39 520.27" stroke="#132e65" stroke-width="1.5"></path><path d="M1556.39 520.27L1601.74 664.27" stroke="#132e65" stroke-width="1.5"></path><path d="M1601.74 664.27L1601.74 664.27" stroke="#132e65" stroke-width="1.5"></path><path d="M1601.74 664.27L1539.52 400.35" stroke="#132e65" stroke-width="1.5"></path><circle r="5" cx="-100.71" cy="351.17" fill="#132e65"></circle><circle r="5" cx="-43.83" cy="532.65" fill="#132e65"></circle><circle r="5" cx="-82.61" cy="704.91" fill="#132e65"></circle><circle r="5" cx="60.87" cy="377.35" fill="#132e65"></circle><circle r="5" cx="46.77" cy="546.12" fill="#132e65"></circle><circle r="5" cx="92.29" cy="703.92" fill="#132e65"></circle><circle r="5" cx="209.78" cy="404.02" fill="#132e65"></circle><circle r="5" cx="232.16" cy="510.43" fill="#132e65"></circle><circle r="5" cx="230.18" cy="643.73" fill="#132e65"></circle><circle r="5" cx="377.48" cy="352.54" fill="#132e65"></circle><circle r="5" cx="399.2" cy="529.37" fill="#132e65"></circle><circle r="5" cx="408.62" cy="664.69" fill="#132e65"></circle><circle r="5" cx="497.77" cy="488.71" fill="#132e65"></circle><circle r="5" cx="538.01" cy="691.79" fill="#132e65"></circle><circle r="5" cx="683.57" cy="513.5" fill="#132e65"></circle><circle r="5" cx="646.34" cy="689.21" fill="#132e65"></circle><circle r="5" cx="826.24" cy="196.85" fill="#132e65"></circle><circle r="5" cx="789.7" cy="409.76" fill="#132e65"></circle><circle r="5" cx="810.13" cy="525.06" fill="#132e65"></circle><circle r="5" cx="853.57" cy="702.79" fill="#132e65"></circle><circle r="5" cx="996.38" cy="63.68" fill="#132e65"></circle><circle r="5" cx="1010.7" cy="246.83" fill="#132e65"></circle><circle r="5" cx="953.74" cy="360.54" fill="#132e65"></circle><circle r="5" cx="946.4" cy="520.42" fill="#132e65"></circle><circle r="5" cx="959.95" cy="684.31" fill="#132e65"></circle><circle r="5" cx="1155.19" cy="-106.06" fill="#132e65"></circle><circle r="5" cx="1150.28" cy="59.78" fill="#132e65"></circle><circle r="5" cx="1102.46" cy="249.57" fill="#132e65"></circle><circle r="5" cx="1098.92" cy="407.82" fill="#132e65"></circle><circle r="5" cx="1091.72" cy="558.84" fill="#132e65"></circle><circle r="5" cx="1143.21" cy="652.68" fill="#132e65"></circle><circle r="5" cx="1272.5" cy="-92.52" fill="#132e65"></circle><circle r="5" cx="1298.23" cy="51.88" fill="#132e65"></circle><circle r="5" cx="1264.12" cy="235.64" fill="#132e65"></circle><circle r="5" cx="1256.62" cy="515.05" fill="#132e65"></circle><circle r="5" cx="1282.52" cy="655.83" fill="#132e65"></circle><circle r="5" cx="1450.73" cy="-108.4" fill="#132e65"></circle><circle r="5" cx="1406.55" cy="38.48" fill="#132e65"></circle><circle r="5" cx="1392.03" cy="255.66" fill="#132e65"></circle><circle r="5" cx="1437.97" cy="345.11" fill="#132e65"></circle><circle r="5" cx="1397.63" cy="683.52" fill="#132e65"></circle><circle r="5" cx="1610.95" cy="-75.21" fill="#132e65"></circle><circle r="5" cx="1560.24" cy="62.04" fill="#132e65"></circle><circle r="5" cx="1598.62" cy="237.47" fill="#132e65"></circle><circle r="5" cx="1539.52" cy="400.35" fill="#132e65"></circle><circle r="5" cx="1556.39" cy="520.27" fill="#132e65"></circle><circle r="5" cx="1601.74" cy="664.27" fill="#132e65"></circle><path d="M92.95 665.17L92.95 665.17" stroke="hsl(228.5, 77.2%, 51.5%)" stroke-width="1.5"></path><path d="M92.95 665.17L231.18 653.14" stroke="hsl(228.5, 77.2%, 51.5%)" stroke-width="1.5"></path><path d="M92.95 665.17L44.31 523.7" stroke="hsl(228.5, 77.2%, 51.5%)" stroke-width="1.5"></path><path d="M668.77 554.43L668.77 554.43" stroke="hsl(228.5, 77.2%, 51.5%)" stroke-width="1.5"></path><path d="M668.77 554.43L686.98 709.65" stroke="hsl(228.5, 77.2%, 51.5%)" stroke-width="1.5"></path><path d="M668.77 554.43L823.21 488.3" stroke="hsl(228.5, 77.2%, 51.5%)" stroke-width="1.5"></path><path d="M668.77 554.43L822.11 661.58" stroke="hsl(228.5, 77.2%, 51.5%)" stroke-width="1.5"></path><path d="M668.77 554.43L512.78 672.18" stroke="hsl(228.5, 77.2%, 51.5%)" stroke-width="1.5"></path><path d="M668.77 554.43L826.59 412.29" stroke="hsl(228.5, 77.2%, 51.5%)" stroke-width="1.5"></path><path d="M668.77 554.43L384.76 641.32" stroke="hsl(228.5, 77.2%, 51.5%)" stroke-width="1.5"></path><path d="M1143.76 384.41L1143.76 384.41" stroke="hsl(228.5, 77.2%, 51.5%)" stroke-width="1.5"></path><path d="M1143.76 384.41L1121.16 521.76" stroke="hsl(228.5, 77.2%, 51.5%)" stroke-width="1.5"></path><path d="M1143.76 384.41L1291.53 392.26" stroke="hsl(228.5, 77.2%, 51.5%)" stroke-width="1.5"></path><path d="M1143.76 384.41L994.04 365.12" stroke="hsl(228.5, 77.2%, 51.5%)" stroke-width="1.5"></path><path d="M1143.76 384.41L1248.34 243.62" stroke="hsl(228.5, 77.2%, 51.5%)" stroke-width="1.5"></path><path d="M1143.76 384.41L999.2 489.94" stroke="hsl(228.5, 77.2%, 51.5%)" stroke-width="1.5"></path><path d="M1143.76 384.41L1286.17 493.8" stroke="hsl(228.5, 77.2%, 51.5%)" stroke-width="1.5"></path><path d="M1248.34 243.62L1248.34 243.62" stroke="hsl(228.5, 77.2%, 51.5%)" stroke-width="1.5"></path><path d="M1248.34 243.62L1291.53 392.26" stroke="hsl(228.5, 77.2%, 51.5%)" stroke-width="1.5"></path><path d="M1248.34 243.62L1096.09 194.88" stroke="hsl(228.5, 77.2%, 51.5%)" stroke-width="1.5"></path><path d="M1248.34 243.62L1409.7 231.11" stroke="hsl(228.5, 77.2%, 51.5%)" stroke-width="1.5"></path><path d="M1248.34 243.62L1309.03 68.84" stroke="hsl(228.5, 77.2%, 51.5%)" stroke-width="1.5"></path><path d="M1248.34 243.62L1457.96 372.96" stroke="hsl(228.5, 77.2%, 51.5%)" stroke-width="1.5"></path><path d="M1426.24 -91.02L1426.24 -91.02" stroke="hsl(228.5, 77.2%, 51.5%)" stroke-width="1.5"></path><path d="M1426.24 -91.02L1585.49 -97.68" stroke="hsl(228.5, 77.2%, 51.5%)" stroke-width="1.5"></path><path d="M1426.24 -91.02L1436.31 77.77" stroke="hsl(228.5, 77.2%, 51.5%)" stroke-width="1.5"></path><path d="M1426.24 -91.02L1240.18 -50.44" stroke="hsl(228.5, 77.2%, 51.5%)" stroke-width="1.5"></path><path d="M1436.31 77.77L1436.31 77.77" stroke="hsl(228.5, 77.2%, 51.5%)" stroke-width="1.5"></path><path d="M1436.31 77.77L1553.48 90.6" stroke="hsl(228.5, 77.2%, 51.5%)" stroke-width="1.5"></path><path d="M1436.31 77.77L1309.03 68.84" stroke="hsl(228.5, 77.2%, 51.5%)" stroke-width="1.5"></path><path d="M1579.81 410.51L1579.81 410.51" stroke="hsl(228.5, 77.2%, 51.5%)" stroke-width="1.5"></path><path d="M1579.81 410.51L1573.09 518.37" stroke="hsl(228.5, 77.2%, 51.5%)" stroke-width="1.5"></path><path d="M1579.81 410.51L1457.96 372.96" stroke="hsl(228.5, 77.2%, 51.5%)" stroke-width="1.5"></path><path d="M1579.81 410.51L1431.59 529.65" stroke="hsl(228.5, 77.2%, 51.5%)" stroke-width="1.5"></path><path d="M1579.81 410.51L1409.7 231.11" stroke="hsl(228.5, 77.2%, 51.5%)" stroke-width="1.5"></path><path d="M1573.09 518.37L1573.09 518.37" stroke="hsl(228.5, 77.2%, 51.5%)" stroke-width="1.5"></path><path d="M1573.09 518.37L1431.59 529.65" stroke="hsl(228.5, 77.2%, 51.5%)" stroke-width="1.5"></path><path d="M1573.09 518.37L1544.41 682.97" stroke="hsl(228.5, 77.2%, 51.5%)" stroke-width="1.5"></path><path d="M-56.88 541.67L-56.88 541.67" stroke="hsl(228.5, 77.2%, 51.5%)" stroke-width="1.5"></path><path d="M-56.88 541.67L44.31 523.7" stroke="hsl(228.5, 77.2%, 51.5%)" stroke-width="1.5"></path><path d="M-56.88 541.67L-104.59 659.96" stroke="hsl(228.5, 77.2%, 51.5%)" stroke-width="1.5"></path><path d="M-56.88 541.67L92.95 665.17" stroke="hsl(228.5, 77.2%, 51.5%)" stroke-width="1.5"></path><path d="M-56.88 541.67L201.46 490.75" stroke="hsl(228.5, 77.2%, 51.5%)" stroke-width="1.5"></path><path d="M-56.88 541.67L231.18 653.14" stroke="hsl(228.5, 77.2%, 51.5%)" stroke-width="1.5"></path><path d="M-56.88 541.67L368.13 525.75" stroke="hsl(228.5, 77.2%, 51.5%)" stroke-width="1.5"></path><path d="M-104.59 659.96L-104.59 659.96" stroke="hsl(228.5, 77.2%, 51.5%)" stroke-width="1.5"></path><path d="M-104.59 659.96L92.95 665.17" stroke="hsl(228.5, 77.2%, 51.5%)" stroke-width="1.5"></path><path d="M44.31 523.7L44.31 523.7" stroke="hsl(228.5, 77.2%, 51.5%)" stroke-width="1.5"></path><path d="M44.31 523.7L201.46 490.75" stroke="hsl(228.5, 77.2%, 51.5%)" stroke-width="1.5"></path><path d="M201.46 490.75L201.46 490.75" stroke="hsl(228.5, 77.2%, 51.5%)" stroke-width="1.5"></path><path d="M201.46 490.75L231.18 653.14" stroke="hsl(228.5, 77.2%, 51.5%)" stroke-width="1.5"></path><path d="M201.46 490.75L368.13 525.75" stroke="hsl(228.5, 77.2%, 51.5%)" stroke-width="1.5"></path><path d="M231.18 653.14L231.18 653.14" stroke="hsl(228.5, 77.2%, 51.5%)" stroke-width="1.5"></path><path d="M368.13 525.75L368.13 525.75" stroke="hsl(228.5, 77.2%, 51.5%)" stroke-width="1.5"></path><path d="M368.13 525.75L384.76 641.32" stroke="hsl(228.5, 77.2%, 51.5%)" stroke-width="1.5"></path><path d="M384.76 641.32L384.76 641.32" stroke="hsl(228.5, 77.2%, 51.5%)" stroke-width="1.5"></path><path d="M384.76 641.32L512.78 672.18" stroke="hsl(228.5, 77.2%, 51.5%)" stroke-width="1.5"></path><path d="M384.76 641.32L231.18 653.14" stroke="hsl(228.5, 77.2%, 51.5%)" stroke-width="1.5"></path><path d="M384.76 641.32L201.46 490.75" stroke="hsl(228.5, 77.2%, 51.5%)" stroke-width="1.5"></path><path d="M384.76 641.32L92.95 665.17" stroke="hsl(228.5, 77.2%, 51.5%)" stroke-width="1.5"></path><path d="M512.78 672.18L512.78 672.18" stroke="hsl(228.5, 77.2%, 51.5%)" stroke-width="1.5"></path><path d="M512.78 672.18L686.98 709.65" stroke="hsl(228.5, 77.2%, 51.5%)" stroke-width="1.5"></path><path d="M512.78 672.18L368.13 525.75" stroke="hsl(228.5, 77.2%, 51.5%)" stroke-width="1.5"></path><path d="M686.98 709.65L686.98 709.65" stroke="hsl(228.5, 77.2%, 51.5%)" stroke-width="1.5"></path><path d="M686.98 709.65L822.11 661.58" stroke="hsl(228.5, 77.2%, 51.5%)" stroke-width="1.5"></path><path d="M686.98 709.65L823.21 488.3" stroke="hsl(228.5, 77.2%, 51.5%)" stroke-width="1.5"></path><path d="M826.59 412.29L826.59 412.29" stroke="hsl(228.5, 77.2%, 51.5%)" stroke-width="1.5"></path><path d="M826.59 412.29L823.21 488.3" stroke="hsl(228.5, 77.2%, 51.5%)" stroke-width="1.5"></path><path d="M826.59 412.29L994.04 365.12" stroke="hsl(228.5, 77.2%, 51.5%)" stroke-width="1.5"></path><path d="M823.21 488.3L823.21 488.3" stroke="hsl(228.5, 77.2%, 51.5%)" stroke-width="1.5"></path><path d="M822.11 661.58L822.11 661.58" stroke="hsl(228.5, 77.2%, 51.5%)" stroke-width="1.5"></path><path d="M822.11 661.58L823.21 488.3" stroke="hsl(228.5, 77.2%, 51.5%)" stroke-width="1.5"></path><path d="M822.11 661.58L1007.8 640.22" stroke="hsl(228.5, 77.2%, 51.5%)" stroke-width="1.5"></path><path d="M822.11 661.58L999.2 489.94" stroke="hsl(228.5, 77.2%, 51.5%)" stroke-width="1.5"></path><path d="M822.11 661.58L826.59 412.29" stroke="hsl(228.5, 77.2%, 51.5%)" stroke-width="1.5"></path><path d="M994.04 365.12L994.04 365.12" stroke="hsl(228.5, 77.2%, 51.5%)" stroke-width="1.5"></path><path d="M994.04 365.12L999.2 489.94" stroke="hsl(228.5, 77.2%, 51.5%)" stroke-width="1.5"></path><path d="M994.04 365.12L1096.09 194.88" stroke="hsl(228.5, 77.2%, 51.5%)" stroke-width="1.5"></path><path d="M994.04 365.12L1121.16 521.76" stroke="hsl(228.5, 77.2%, 51.5%)" stroke-width="1.5"></path><path d="M994.04 365.12L823.21 488.3" stroke="hsl(228.5, 77.2%, 51.5%)" stroke-width="1.5"></path><path d="M999.2 489.94L999.2 489.94" stroke="hsl(228.5, 77.2%, 51.5%)" stroke-width="1.5"></path><path d="M999.2 489.94L1121.16 521.76" stroke="hsl(228.5, 77.2%, 51.5%)" stroke-width="1.5"></path><path d="M1007.8 640.22L1007.8 640.22" stroke="hsl(228.5, 77.2%, 51.5%)" stroke-width="1.5"></path><path d="M1007.8 640.22L1093.17 693.07" stroke="hsl(228.5, 77.2%, 51.5%)" stroke-width="1.5"></path><path d="M1007.8 640.22L999.2 489.94" stroke="hsl(228.5, 77.2%, 51.5%)" stroke-width="1.5"></path><path d="M1007.8 640.22L1121.16 521.76" stroke="hsl(228.5, 77.2%, 51.5%)" stroke-width="1.5"></path><path d="M1096.09 194.88L1096.09 194.88" stroke="hsl(228.5, 77.2%, 51.5%)" stroke-width="1.5"></path><path d="M1096.09 194.88L1143.76 384.41" stroke="hsl(228.5, 77.2%, 51.5%)" stroke-width="1.5"></path><path d="M1096.09 194.88L1309.03 68.84" stroke="hsl(228.5, 77.2%, 51.5%)" stroke-width="1.5"></path><path d="M1096.09 194.88L1291.53 392.26" stroke="hsl(228.5, 77.2%, 51.5%)" stroke-width="1.5"></path><path d="M1096.09 194.88L1240.18 -50.44" stroke="hsl(228.5, 77.2%, 51.5%)" stroke-width="1.5"></path><path d="M1121.16 521.76L1121.16 521.76" stroke="hsl(228.5, 77.2%, 51.5%)" stroke-width="1.5"></path><path d="M1093.17 693.07L1093.17 693.07" stroke="hsl(228.5, 77.2%, 51.5%)" stroke-width="1.5"></path><path d="M1093.17 693.07L1121.16 521.76" stroke="hsl(228.5, 77.2%, 51.5%)" stroke-width="1.5"></path><path d="M1093.17 693.07L1276.35 670.43" stroke="hsl(228.5, 77.2%, 51.5%)" stroke-width="1.5"></path><path d="M1093.17 693.07L999.2 489.94" stroke="hsl(228.5, 77.2%, 51.5%)" stroke-width="1.5"></path><path d="M1093.17 693.07L822.11 661.58" stroke="hsl(228.5, 77.2%, 51.5%)" stroke-width="1.5"></path><path d="M1093.17 693.07L1286.17 493.8" stroke="hsl(228.5, 77.2%, 51.5%)" stroke-width="1.5"></path><path d="M1240.18 -50.44L1240.18 -50.44" stroke="hsl(228.5, 77.2%, 51.5%)" stroke-width="1.5"></path><path d="M1240.18 -50.44L1309.03 68.84" stroke="hsl(228.5, 77.2%, 51.5%)" stroke-width="1.5"></path><path d="M1309.03 68.84L1309.03 68.84" stroke="hsl(228.5, 77.2%, 51.5%)" stroke-width="1.5"></path><path d="M1291.53 392.26L1291.53 392.26" stroke="hsl(228.5, 77.2%, 51.5%)" stroke-width="1.5"></path><path d="M1291.53 392.26L1286.17 493.8" stroke="hsl(228.5, 77.2%, 51.5%)" stroke-width="1.5"></path><path d="M1291.53 392.26L1457.96 372.96" stroke="hsl(228.5, 77.2%, 51.5%)" stroke-width="1.5"></path><path d="M1291.53 392.26L1431.59 529.65" stroke="hsl(228.5, 77.2%, 51.5%)" stroke-width="1.5"></path><path d="M1291.53 392.26L1409.7 231.11" stroke="hsl(228.5, 77.2%, 51.5%)" stroke-width="1.5"></path><path d="M1286.17 493.8L1286.17 493.8" stroke="hsl(228.5, 77.2%, 51.5%)" stroke-width="1.5"></path><path d="M1286.17 493.8L1431.59 529.65" stroke="hsl(228.5, 77.2%, 51.5%)" stroke-width="1.5"></path><path d="M1276.35 670.43L1276.35 670.43" stroke="hsl(228.5, 77.2%, 51.5%)" stroke-width="1.5"></path><path d="M1276.35 670.43L1286.17 493.8" stroke="hsl(228.5, 77.2%, 51.5%)" stroke-width="1.5"></path><path d="M1276.35 670.43L1455.19 687.27" stroke="hsl(228.5, 77.2%, 51.5%)" stroke-width="1.5"></path><path d="M1276.35 670.43L1431.59 529.65" stroke="hsl(228.5, 77.2%, 51.5%)" stroke-width="1.5"></path><path d="M1276.35 670.43L1121.16 521.76" stroke="hsl(228.5, 77.2%, 51.5%)" stroke-width="1.5"></path><path d="M1409.7 231.11L1409.7 231.11" stroke="hsl(228.5, 77.2%, 51.5%)" stroke-width="1.5"></path><path d="M1409.7 231.11L1457.96 372.96" stroke="hsl(228.5, 77.2%, 51.5%)" stroke-width="1.5"></path><path d="M1409.7 231.11L1436.31 77.77" stroke="hsl(228.5, 77.2%, 51.5%)" stroke-width="1.5"></path><path d="M1409.7 231.11L1309.03 68.84" stroke="hsl(228.5, 77.2%, 51.5%)" stroke-width="1.5"></path><path d="M1457.96 372.96L1457.96 372.96" stroke="hsl(228.5, 77.2%, 51.5%)" stroke-width="1.5"></path><path d="M1431.59 529.65L1431.59 529.65" stroke="hsl(228.5, 77.2%, 51.5%)" stroke-width="1.5"></path><path d="M1431.59 529.65L1457.96 372.96" stroke="hsl(228.5, 77.2%, 51.5%)" stroke-width="1.5"></path><path d="M1431.59 529.65L1455.19 687.27" stroke="hsl(228.5, 77.2%, 51.5%)" stroke-width="1.5"></path><path d="M1455.19 687.27L1455.19 687.27" stroke="hsl(228.5, 77.2%, 51.5%)" stroke-width="1.5"></path><path d="M1455.19 687.27L1544.41 682.97" stroke="hsl(228.5, 77.2%, 51.5%)" stroke-width="1.5"></path><path d="M1585.49 -97.68L1585.49 -97.68" stroke="hsl(228.5, 77.2%, 51.5%)" stroke-width="1.5"></path><path d="M1585.49 -97.68L1553.48 90.6" stroke="hsl(228.5, 77.2%, 51.5%)" stroke-width="1.5"></path><path d="M1585.49 -97.68L1436.31 77.77" stroke="hsl(228.5, 77.2%, 51.5%)" stroke-width="1.5"></path><path d="M1553.48 90.6L1553.48 90.6" stroke="hsl(228.5, 77.2%, 51.5%)" stroke-width="1.5"></path><path d="M1553.48 90.6L1409.7 231.11" stroke="hsl(228.5, 77.2%, 51.5%)" stroke-width="1.5"></path><path d="M1553.48 90.6L1426.24 -91.02" stroke="hsl(228.5, 77.2%, 51.5%)" stroke-width="1.5"></path><path d="M1553.48 90.6L1309.03 68.84" stroke="hsl(228.5, 77.2%, 51.5%)" stroke-width="1.5"></path><path d="M1553.48 90.6L1457.96 372.96" stroke="hsl(228.5, 77.2%, 51.5%)" stroke-width="1.5"></path><path d="M1544.41 682.97L1544.41 682.97" stroke="hsl(228.5, 77.2%, 51.5%)" stroke-width="1.5"></path><path d="M1544.41 682.97L1431.59 529.65" stroke="hsl(228.5, 77.2%, 51.5%)" stroke-width="1.5"></path><path d="M1544.41 682.97L1276.35 670.43" stroke="hsl(228.5, 77.2%, 51.5%)" stroke-width="1.5"></path><circle r="25" cx="92.95" cy="665.17" fill="url(&quot;#SvgjsRadialGradient1040&quot;)"></circle><circle r="25" cx="668.77" cy="554.43" fill="url(&quot;#SvgjsRadialGradient1040&quot;)"></circle><circle r="25" cx="1143.76" cy="384.41" fill="url(&quot;#SvgjsRadialGradient1040&quot;)"></circle><circle r="25" cx="1248.34" cy="243.62" fill="url(&quot;#SvgjsRadialGradient1040&quot;)"></circle><circle r="25" cx="1426.24" cy="-91.02" fill="url(&quot;#SvgjsRadialGradient1040&quot;)"></circle><circle r="25" cx="1436.31" cy="77.77" fill="url(&quot;#SvgjsRadialGradient1040&quot;)"></circle><circle r="25" cx="1579.81" cy="410.51" fill="url(&quot;#SvgjsRadialGradient1040&quot;)"></circle><circle r="25" cx="1573.09" cy="518.37" fill="url(&quot;#SvgjsRadialGradient1040&quot;)"></circle><circle r="5" cx="-56.88" cy="541.67" fill="#8b9ad9"></circle><circle r="5" cx="-104.59" cy="659.96" fill="#8b9ad9"></circle><circle r="5" cx="44.31" cy="523.7" fill="#8b9ad9"></circle><circle r="5" cx="201.46" cy="490.75" fill="#8b9ad9"></circle><circle r="5" cx="231.18" cy="653.14" fill="#8b9ad9"></circle><circle r="5" cx="368.13" cy="525.75" fill="#8b9ad9"></circle><circle r="5" cx="384.76" cy="641.32" fill="#8b9ad9"></circle><circle r="5" cx="512.78" cy="672.18" fill="#8b9ad9"></circle><circle r="5" cx="686.98" cy="709.65" fill="#8b9ad9"></circle><circle r="5" cx="826.59" cy="412.29" fill="#8b9ad9"></circle><circle r="5" cx="823.21" cy="488.3" fill="#8b9ad9"></circle><circle r="5" cx="822.11" cy="661.58" fill="#8b9ad9"></circle><circle r="5" cx="994.04" cy="365.12" fill="#8b9ad9"></circle><circle r="5" cx="999.2" cy="489.94" fill="#8b9ad9"></circle><circle r="5" cx="1007.8" cy="640.22" fill="#8b9ad9"></circle><circle r="5" cx="1096.09" cy="194.88" fill="#8b9ad9"></circle><circle r="5" cx="1121.16" cy="521.76" fill="#8b9ad9"></circle><circle r="5" cx="1093.17" cy="693.07" fill="#8b9ad9"></circle><circle r="5" cx="1240.18" cy="-50.44" fill="#8b9ad9"></circle><circle r="5" cx="1309.03" cy="68.84" fill="#8b9ad9"></circle><circle r="5" cx="1291.53" cy="392.26" fill="#8b9ad9"></circle><circle r="5" cx="1286.17" cy="493.8" fill="#8b9ad9"></circle><circle r="5" cx="1276.35" cy="670.43" fill="#8b9ad9"></circle><circle r="5" cx="1409.7" cy="231.11" fill="#8b9ad9"></circle><circle r="5" cx="1457.96" cy="372.96" fill="#8b9ad9"></circle><circle r="5" cx="1431.59" cy="529.65" fill="#8b9ad9"></circle><circle r="5" cx="1455.19" cy="687.27" fill="#8b9ad9"></circle><circle r="5" cx="1585.49" cy="-97.68" fill="#8b9ad9"></circle><circle r="5" cx="1553.48" cy="90.6" fill="#8b9ad9"></circle><circle r="5" cx="1544.41" cy="682.97" fill="#8b9ad9"></circle></g><defs><mask id="SvgjsMask1038"><rect width="1440" height="560" fill="#ffffff"></rect></mask><linearGradient x1="15.28%" y1="-39.29%" x2="84.72%" y2="139.29%" gradientUnits="userSpaceOnUse" id="SvgjsLinearGradient1039"><stop stop-color="#0e2a47" offset="0"></stop><stop stop-color="rgba(0, 0, 0, 1)" offset="1"></stop></linearGradient><radialGradient id="SvgjsRadialGradient1040"><stop stop-color="#ffffff" offset="0.1"></stop><stop stop-color="#1735b3" offset="0.2"></stop><stop stop-color="rgba(23, 53, 179, 0)" offset="1"></stop></radialGradient></defs></svg>